<svg xmlns="http://www.w3.org/2000/svg" xmlns:xlink="http://www.w3.org/1999/xlink" version="1.1" id="Layer_1" x="0px" y="0px" enable-background="new 0 0 3000 3000" xml:space="preserve" viewBox="1284.46 1168.86 382.9 649.6">
<g>
	<g>
		<path fill="#FFFFFF" d="M1294.516,1365.232c-0.221-0.75-0.25-1.095-0.41-1.358c-3.159-5.172-3.505-10.882-3.077-16.692    c0.327-4.449,2.002-8.495,5.209-11.552c2.464-2.349,3.774-5.001,4.403-8.235c1.251-6.433,2.644-12.838,3.953-19.26    c0.125-0.612,0.068-1.262,0.094-1.838c-0.348-0.466-0.59-0.888-0.922-1.221c-9.481-9.537-13.85-21.299-14.857-34.463    c-0.771-10.061,0.614-19.716,5.226-28.889c4.824-9.593,12.04-16.877,20.857-22.673c4.415-2.902,9.27-5.018,14.35-6.576    c3.079-0.944,6.198-1.56,9.422-1.618c0.32-0.006,0.64-0.008,0.959-0.024c8.244-0.407,16.311,0.26,23.809,4.13    c0.977-0.561,1.837-0.979,2.617-1.513c16.534-11.333,34.644-19.197,53.945-24.384c6.172-1.658,12.393-3.178,18.659-4.422    c2.831-0.562,4.935-1.779,6.932-3.786c6.42-6.452,14.358-10.155,23.26-11.461c11.142-1.635,21.669,0.44,31.208,6.621    c1.999,1.295,4.017,2.734,5.565,4.509c2.252,2.581,4.967,3.711,8.228,4.332c12.114,2.307,23.962,5.638,35.53,9.913    c11.744,4.339,22.849,9.976,33.335,16.824c1.604,1.048,3.208,2.097,4.957,3.24c0.707-0.221,1.474-0.394,2.187-0.694    c5.838-2.458,11.905-3.242,18.242-3.415c12.301-0.335,22.932,3.946,32.515,11.056c11.039,8.191,18.355,19.024,21.374,32.576    c0.174,0.78,0.428,1.559,0.474,2.348c0.417,7.188,0.908,14.39-0.665,21.506c-2.249,10.175-6.238,19.47-13.896,26.86    c-0.337,0.326-0.579,0.752-1.08,1.416c0.784,3.851,1.603,7.906,2.437,11.959c0.74,3.602,1.521,7.194,2.237,10.801    c0.417,2.103,1.286,3.896,2.958,5.311c2.914,2.465,4.715,5.724,5.554,9.338c1.28,5.514,1.37,11.081-0.832,16.464    c-0.604,1.476-1.329,2.903-2.11,4.592c0.635,0.796,1.222,1.722,1.988,2.462c2.934,2.837,4.263,6.275,4.2,10.333    c-0.189,12.261-2.329,24.161-6.473,35.704c-1.293,3.604-3.635,6.343-6.766,8.462c-0.787,0.533-1.581,1.055-2.55,1.701    c-2.232,11.048-4.535,22.158-6.704,33.294c-1.497,7.682-0.584,15.261,1.228,22.803c2.652,11.05,6.041,21.879,9.651,32.64    c5.814,17.33,9.96,35.056,12.657,53.117c2.392,16.015,3.307,32.145,2.862,48.322c-0.241,8.785-0.73,17.581-1.559,26.33    c-1.629,17.203-6.616,33.504-13.912,49.139c-7.024,15.053-15.999,28.771-27.518,40.786c-0.749,0.781-1.376,1.68-2.243,2.751    c2.688,1.305,5.094,2.507,7.527,3.647c6.037,2.832,11.143,6.898,15.528,11.863c4.049,4.582,6.539,9.822,6.196,16.123    c-0.025,0.479,0.029,0.962-0.008,1.439c-0.289,3.738,0.348,7.129,2.431,10.445c3.811,6.066,4.577,12.956,3.749,19.91    c-0.902,7.587-5.01,13.421-11.32,17.575c-4.055,2.669-8.616,4.257-13.512,4.51c-8.201,0.425-16.273-0.216-24.157-2.81    c-15.018-4.941-28.854-12.197-41.731-21.271c-5.615-3.957-10.902-8.378-16.33-12.6c-0.877-0.682-1.708-1.421-2.616-2.182    c-4.423,1.011-8.762,2.024-13.11,2.992c-10.51,2.337-21.187,3.211-31.916,3.302c-8.795,0.074-17.593-0.272-26.389-0.273    c-8.476-0.001-16.952,0.289-25.428,0.297c-15.269,0.016-30.313-1.763-45.022-5.997c-0.457-0.131-0.934-0.188-1.755-0.35    c-1.064,0.859-2.306,1.824-3.506,2.839c-12.271,10.375-25.476,19.313-40.002,26.263c-6.362,3.044-12.902,5.575-19.644,7.639    c-7.313,2.237-14.802,2.644-22.325,2.068c-7.852-0.6-14.467-4.02-19.385-10.219c-3.13-3.944-4.842-8.506-5.163-13.669    c-0.464-7.474,1.347-14.264,5.247-20.556c0.879-1.417,1.318-2.83,1.187-4.511c-0.135-1.75,0.014-3.521-0.055-5.277    c-0.232-5.937,2.062-10.934,5.833-15.298c4.329-5.009,9.372-9.157,15.406-12.013c2.589-1.225,5.15-2.508,7.842-3.821    c-0.916-2.092-2.599-3.379-3.977-4.886c-6.606-7.224-12.564-14.927-17.53-23.377c-9.638-16.4-16.712-33.796-20.349-52.521    c-1.988-10.236-2.789-20.607-3.08-31.001c-0.247-8.792-0.274-17.604,0.003-26.394c0.397-12.641,1.943-25.18,4.07-37.652    c3.021-17.704,8.025-34.867,13.605-51.906c2.832-8.648,5.096-17.488,7.476-26.28c2.122-7.839,2.385-15.768,0.725-23.757    c-2.049-9.86-4.023-19.736-5.979-29.615c-0.307-1.549-1.09-2.538-2.434-3.325c-3.581-2.099-5.979-5.157-7.376-9.104    c-3.93-11.099-5.975-22.519-6.355-34.281c-0.156-4.797,1.267-8.774,4.854-11.977    C1293.71,1366.38,1294.043,1365.822,1294.516,1365.232z"/>
	</g>
</g>
<g>
	<g>
		<path fill="#141414" d="M1314.855,1415.283c-1.429-0.852-2.863-1.899-4.449-2.608c-2.724-1.219-4.048-3.336-4.907-6.09    c-1.671-5.359-2.952-10.794-3.702-16.347c-0.492-3.64-0.766-7.308-1.161-10.961c-0.239-2.209,0.775-3.696,2.674-4.625    c1.864-0.911,3.773-1.731,5.798-2.653c0.677-2.646,0.237-5.353,0.035-8.022c-0.063-0.845-0.809-1.676-1.351-2.438    c-0.925-1.3-2.059-2.464-2.886-3.818c-2.716-4.45-3.683-11.421,2.931-16.163c2.158-1.547,3.066-3.342,3.578-5.832    c2.058-10.017,4.319-19.992,6.498-29.984c0.271-1.24,0.496-2.49,0.777-3.911c-0.6-0.542-1.138-1.117-1.76-1.577    c-7.813-5.786-12.421-13.629-14.662-22.955c-2.81-11.694-1.877-22.962,4.768-33.222c7.288-11.252,17.468-18.519,30.86-20.833    c8.028-1.388,15.585,0.122,22.682,4.051c1.253,0.694,2.464,1.464,3.902,2.323c0.624-0.337,1.36-0.616,1.957-1.075    c19.615-15.119,41.848-24.47,65.858-29.887c4.831-1.09,9.69-2.072,14.565-2.942c1.869-0.333,3.168-1.115,4.306-2.649    c4.06-5.476,9.609-9.043,16.079-10.714c12.712-3.284,23.756-0.044,32.567,9.8c1.799,2.009,3.508,3.272,6.262,3.751    c12.773,2.222,25.313,5.436,37.531,9.807c14.258,5.1,27.386,12.319,39.58,21.268c1.03,0.756,2.066,1.505,3.125,2.219    c0.25,0.168,0.602,0.185,1.108,0.328c0.688-0.409,1.505-0.885,2.313-1.375c10.45-6.346,21.419-7.086,32.661-2.604    c9.467,3.774,17.071,9.993,22.479,18.71c6.149,9.911,7.369,20.627,4.895,31.87c-2.17,9.863-6.799,18.219-15.135,24.25    c-0.386,0.279-0.727,0.623-1.074,0.953c-0.109,0.104-0.167,0.262-0.432,0.692c1.309,5.97,2.693,12.184,4.025,18.409    c1.337,6.248,2.621,12.507,3.951,18.871c0.965,0.741,1.998,1.485,2.978,2.294c5.188,4.288,6.264,10.544,2.678,16.279    c-1.178,1.884-2.683,3.563-4.188,5.532c0,2.67,0,5.525,0,8.501c1.954,0.902,3.839,1.733,5.688,2.636    c2.043,0.998,3.127,2.512,2.944,4.955c-0.729,9.765-2.297,19.354-5.499,28.643c-0.611,1.774-1.676,2.986-3.289,3.915    c-6.975,4.013-5.397,2.103-7.103,10.173c-1.949,9.226-3.797,18.473-5.727,27.703c-2.398,11.473-2.063,22.844,0.836,34.209    c3.045,11.939,6.878,23.631,10.663,35.34c5.92,18.314,9.832,37.055,12.19,56.145c2.502,20.253,2.665,40.557,0.555,60.806    c-3.335,31.991-15.793,60.099-37.521,83.913c-4.95,5.426-10.431,10.366-15.659,15.537c-0.874,0.863-1.712,1.765-2.919,3.014    c2.045,0.467,3.582,0.823,5.121,1.167c7.52,1.682,14.807,4.035,21.637,7.647c4.42,2.338,8.414,5.256,11.607,9.148    c3.887,4.736,4.247,9.705,1.179,15.068c-0.229,0.4-0.403,0.832-0.684,1.418c0.879,1.099,1.778,2.201,2.654,3.322    c2.374,3.042,4.416,6.252,5.534,10.011c0.797,2.679,0.869,5.388,0.483,8.077c-0.474,3.307-2.292,5.93-4.92,7.965    c-2.874,2.226-6.178,3.276-9.784,3.482c-6.306,0.362-12.417-0.594-18.43-2.488c-11.842-3.731-22.719-9.435-33.09-16.144    c-9.013-5.83-17.56-12.302-25.379-19.667c-1.879-1.771-3.528-2.155-6.002-1.42c-8.431,2.508-17.003,4.441-25.724,5.71    c-20.954,3.048-42.006,4.465-63.144,3.045c-15.47-1.039-30.912-2.628-46.021-6.41c-3.1-0.776-6.215-1.528-9.252-2.512    c-2.125-0.688-3.562-0.1-5.144,1.359c-10.266,9.464-21.422,17.745-33.535,24.709c-8.059,4.634-16.427,8.588-25.323,11.374    c-5.854,1.834-11.813,2.761-17.959,2.469c-3.439-0.164-6.649-1.03-9.465-3.018c-3.604-2.543-5.612-5.95-5.748-10.502    c-0.134-4.501,1.055-8.557,3.503-12.242c1.586-2.389,3.399-4.627,5.332-7.232c-0.289-0.512-0.646-1.168-1.024-1.811    c-2.75-4.658-2.241-9.18,0.706-13.506c2.005-2.942,4.719-5.2,7.603-7.249c4.874-3.461,10.293-5.835,15.938-7.656    c3.794-1.225,7.707-2.08,11.562-3.121c1.172-0.317,2.325-0.7,3.973-1.201c-1.482-1.436-2.58-2.545-3.727-3.602    c-8.6-7.924-16.861-16.175-23.834-25.598c-14.734-19.91-24.031-42.086-27.635-66.638c-1.913-13.024-2.218-26.125-2.014-39.24    c0.112-7.188,0.477-14.388,1.125-21.547c1.868-20.605,6.005-40.771,12.168-60.528c3.569-11.441,7.147-22.883,10.481-34.395    c2.273-7.85,3.913-15.878,3.277-24.121c-0.38-4.93-1.004-9.868-1.938-14.722c-1.99-10.357-4.251-20.664-6.41-30.989    C1315.299,1416.695,1315.087,1416.097,1314.855,1415.283z"/>
	</g>
</g>
<g>
	<g>
		<path fill="#FFFFFF" d="M1362.329,1741.527c-0.295-0.929-0.356-1.937-0.876-2.564c-0.802-0.969-1.918-1.677-2.9-2.496    c-11.219-9.364-21.51-19.638-30.055-31.525c-13.774-19.163-22.532-40.42-25.888-63.816c-2.669-18.609-2.808-37.289-1.099-55.99    c2.118-23.188,7.054-45.768,14.317-67.888c3.438-10.471,6.472-21.085,9.378-31.719c3.304-12.087,3.297-24.356,0.907-36.607    c-2.204-11.295-4.649-22.542-6.859-33.836c-0.378-1.931-1.193-3.223-2.89-4.068c-0.572-0.285-1.076-0.724-1.666-0.948    c-3.459-1.312-5.101-3.927-6.047-7.418c-1.804-6.657-3.014-13.409-3.905-20.229c-0.141-1.081-0.02-2.196-0.02-3.58    c2.787-1.274,5.519-2.523,8.39-3.834c0.755-4.771-0.376-9.521,0.144-13.948c-1.618-1.917-3.092-3.402-4.26-5.099    c-2.803-4.074-3.056-7.401,1.747-11.171c1.001-0.787,2.11-1.436,3.479-2.356c1.454-6.958,3.075-14.114,4.42-21.321    c1.344-7.198,3.757-14.182,4.581-21.539c-0.756-0.644-1.302-1.22-1.948-1.642c-8.872-5.779-13.408-14.319-15.611-24.372    c-2.721-12.414,1.019-23.085,9.022-32.445c5.086-5.948,11.588-9.995,18.955-12.641c8.362-3.004,16.36-1.972,24.041,2.223    c1.535,0.839,2.935,1.929,4.387,2.917c2.173,1.48,2.926,1.476,5.157-0.077c0.262-0.183,0.507-0.39,0.759-0.587    c17.78-13.912,37.73-23.353,59.607-28.738c7.134-1.756,14.337-3.238,21.531-4.74c2.129-0.445,3.794-1.179,5.117-3.097    c4.225-6.128,10.496-9.195,17.495-10.922c2.816-0.695,5.747-0.662,8.57,0.064c6.99,1.797,13.204,4.928,17.396,11.085    c1.205,1.77,2.766,2.505,4.742,2.824c10.91,1.762,21.585,4.5,32.139,7.749c17.459,5.374,33.367,13.74,47.89,24.785    c4.477,3.405,4.467,3.404,8.975,0.322c4.726-3.231,9.981-5.121,15.654-5.518c2.506-0.175,5.169,0.097,7.589,0.78    c14.802,4.175,25.431,13.078,30.578,27.864c3.297,9.468,1.606,18.638-2.19,27.544c-2.495,5.854-6.343,10.71-11.663,14.314    c-0.529,0.359-1.048,0.735-1.586,1.082c-1.259,0.811-1.504,2.001-1.237,3.356c0.217,1.098,0.511,2.18,0.748,3.273    c2.548,11.71,5.12,23.415,7.601,35.139c0.321,1.521,0.852,2.659,2.214,3.463c1.095,0.646,2.171,1.382,3.093,2.251    c2.727,2.568,3.259,5.381,1.345,8.646c-1.277,2.179-3.013,4.089-4.841,6.516c-0.114,4.271-0.241,9.032-0.364,13.618    c2.778,2.268,6.399,2.202,8.894,4.923c-0.28,2.334-0.54,4.861-0.895,7.375c-0.826,5.866-2.043,11.644-3.827,17.304    c-0.703,2.23-1.846,3.808-3.99,5.046c-6.208,3.586-5.205,1.747-6.723,9.35c-1.94,9.718-4.065,19.398-5.991,29.119    c-2.586,13.05-2.632,26.099,0.984,38.964c3.244,11.536,6.66,23.03,10.32,34.441c5.931,18.485,9.908,37.364,12.337,56.607    c2.395,18.979,2.588,37.999,0.521,56.972c-3.464,31.805-15.859,59.726-37.552,83.393c-6.17,6.731-12.741,13.038-19.819,18.814    c-0.866,0.707-1.815,1.364-2.498,2.225c-0.432,0.545-0.44,1.426-0.646,2.182c1.642,1.296,3.459,1.208,5.149,1.45    c8.283,1.187,16.242,3.486,23.895,6.854c4.271,1.879,8.298,4.201,11.662,7.457c1.587,1.536,3.063,3.301,4.15,5.211    c1.676,2.944,1.056,5.449-1.47,7.714c-0.47,0.421-1.1,0.661-1.584,1.069c-0.962,0.811-1.157,2.061-0.401,2.978    c0.709,0.858,1.569,1.588,2.331,2.404c2.854,3.057,5.421,6.327,7.029,10.227c2.776,6.729,0.139,12.38-6.785,14.773    c-3.597,1.243-7.232,1.104-10.9,0.484c-6.508-1.1-12.678-3.287-18.708-5.891c-13.156-5.679-25.135-13.318-36.352-22.167    c-4.14-3.266-8.235-6.631-12.009-10.303c-2.557-2.487-4.901-2.831-8.17-1.666c-8.452,3.012-17.174,5.096-26.09,6.158    c-6.344,0.756-12.719,1.414-19.097,1.658c-6.867,0.264-13.754-0.04-20.633-0.033c-8.318,0.009-16.637,0.023-24.954,0.143    c-18.073,0.26-35.7-2.335-52.849-8.084c-0.605-0.203-1.202-0.462-1.825-0.578c-1.469-0.275-2.843-0.166-3.98,1.021    c-0.884,0.921-1.853,1.764-2.809,2.613c-12.963,11.544-26.942,21.606-42.637,29.149c-7.518,3.613-15.262,6.601-23.528,8.019    c-3.5,0.601-7.022,0.801-10.419-0.495c-1.476-0.563-2.97-1.244-4.232-2.174c-3.568-2.633-4.75-6.376-3.501-10.622    c1.152-3.914,3.384-7.224,6.009-10.277c1.145-1.331,2.46-2.515,3.629-3.826c1.14-1.28,1.012-2.604-0.292-3.718    c-0.483-0.411-1.101-0.674-1.553-1.112c-2.272-2.201-2.794-4.555-1.247-7.349c0.991-1.789,2.312-3.466,3.762-4.913    c3.317-3.311,7.305-5.704,11.556-7.624c7.62-3.444,15.579-5.771,23.851-7.006    C1358.384,1742.593,1360.298,1742.471,1362.329,1741.527z"/>
	</g>
</g>
<g>
	<g>
		<path fill="#BCBCBC" d="M1565.638,1233.937c0.595,0.403,1.247,0.743,1.776,1.218c5.719,5.132,11.094,10.588,15.781,16.698    c12.145,15.829,22.2,32.79,28.22,51.945c2.698,8.587,4.311,17.334,4.221,26.381c-0.065,6.707-0.145,13.424,0.896,20.092    c0.22,1.408,0.256,2.882,0.114,4.299c-0.249,2.51-2.875,3.692-4.966,2.297c-0.792-0.528-1.497-1.195-2.213-1.832    c-10.272-9.148-20.865-17.888-32.313-25.55c-0.506-0.338-0.909-0.83-1.471-1.353c3.204-5.123,1.642-9.674-1.908-13.601    c-3.094-3.424-6.637-6.447-10.047-9.576c-2.118-1.943-4.369-3.739-6.536-5.629c-0.573-0.5-1.176-1.037-1.33-2.118    c2.368-0.343,4.233,0.634,6.078,1.415c7.111,3.011,13.599,7.069,19.524,12.013c2.945,2.457,5.787,5.036,8.729,7.495    c1.22,1.019,2.497,2.03,3.896,2.76c2.646,1.381,5.303,0.312,6.021-2.6c0.528-2.137,0.632-4.43,0.588-6.646    c-0.194-9.686-2.355-19-5.742-28.032c-6.118-16.314-15.104-30.969-26.001-44.5c-1.259-1.564-2.499-3.144-3.748-4.716    C1565.352,1234.245,1565.494,1234.091,1565.638,1233.937z"/>
		<path fill="#BCBCBC" d="M1386.343,1233.868c-0.91,2.391-2.082,3.448-3.045,4.622c-8.452,10.306-15.61,21.441-21.486,33.403    c-4.461,9.084-7.931,18.519-9.582,28.527c-0.7,4.245-1.05,8.564-1.263,12.865c-0.092,1.857,0.321,3.839,0.945,5.609    c0.844,2.396,3.208,3.241,5.499,2.13c1.276-0.619,2.457-1.498,3.555-2.411c2.582-2.146,5.078-4.395,7.627-6.58    c6.351-5.445,13.265-10.019,20.98-13.298c1.861-0.791,3.719-1.868,6.269-1.382c-0.358,0.646-0.524,1.241-0.912,1.592    c-1.891,1.721-3.851,3.365-5.767,5.058c-2.995,2.646-6.037,5.242-8.933,7.991c-1.379,1.309-2.606,2.831-3.663,4.416    c-2.265,3.396-3.084,6.997-0.933,10.821c0.143,0.255,0.093,0.618,0.162,1.159c-0.489,0.427-1.027,1.008-1.667,1.437    c-11.046,7.41-21.296,15.824-31.206,24.67c-0.953,0.85-1.904,1.725-2.962,2.43c-1.899,1.268-4.394,0.204-4.776-2.055    c-0.184-1.085-0.163-2.242-0.021-3.34c1.064-8.271,1.054-16.584,1.09-24.9c0.035-7.911,1.75-15.549,4.153-23.032    c7.052-21.956,18.9-41.17,33.871-58.533c3.016-3.498,6.579-6.524,9.91-9.747    C1384.582,1234.94,1385.104,1234.694,1386.343,1233.868z"/>
		<path fill="#BCBCBC" d="M1502.884,1283.742c8.757-0.442,17.007-1.252,24.946-1.574c1.849,1.714,1.487,3.487,1.519,5.2    c-1.257,1.215-2.74,1.113-4.135,1.117c-5.594,0.016-11.188,0.021-16.781-0.077c-3.994-0.069-7.985-0.296-11.977-0.483    c-0.766-0.036-1.524-0.212-2.321-0.328c-1.453-6.394-1.214-12.896-3.367-18.787c-1.382-0.679-1.922,0.225-2.573,0.901    c-3.32,3.451-6.63,6.913-9.982,10.332c-0.651,0.664-1.477,1.158-2.291,1.783c-2.934-1.912-5.18-4.414-7.599-6.719    c-2.272-2.165-4.065-4.805-6.538-7.3c-2.147,3.441-2.193,6.799-2.661,10.037c-0.454,3.142-0.865,6.29-1.334,9.725    c-3.038,0.651-6.068,0.356-9.044,0.562c-2.869,0.199-5.746,0.311-8.622,0.37c-3.036,0.063-6.077,0.095-9.11,0    c-2.814-0.089-5.723,0.498-8.571-0.801c0-0.928-0.089-1.711,0.016-2.467c0.393-2.83,0.791-3.214,3.765-3.033    c6.06,0.369,12.114,0.849,18.17,1.276c1.414,0.1,2.83,0.168,4.448,0.263c0.583-1.445,1.171-2.725,1.621-4.052    c1.845-5.444,3.598-10.921,5.481-16.352c1.385-3.995,3.106-4.474,6.222-1.781c3.264,2.822,6.45,5.733,9.679,8.595    c1.188,1.053,2.405,2.076,3.846,3.316c0.92-0.662,1.839-1.215,2.632-1.911c3.482-3.058,6.921-6.166,10.393-9.235    c0.834-0.737,1.673-1.502,2.621-2.068c1.293-0.771,3.021-0.237,3.695,1.13c0.562,1.138,0.966,2.36,1.372,3.567    c1.679,4.995,3.32,10.003,5.002,14.998C1501.808,1281.135,1502.314,1282.288,1502.884,1283.742z"/>
		<path fill="#BCBCBC" d="M1468.501,1499.222c-4.838,1.374-8.967,4.01-13.75,4.457c-0.777-3.585-0.691-4.167,1.838-5.069    c4.7-1.677,9.075-3.925,13.206-6.694c0.522-0.35,1.118-0.622,1.716-0.821c1.744-0.583,3.249,0.263,3.652,2.016    c0.071,0.31,0.094,0.632,0.117,0.95c0.594,8.304,0.752,16.602-0.6,24.853c-0.713,4.348-2.675,5.586-7.693,4.85    C1469.108,1515.766,1470.602,1507.713,1468.501,1499.222z"/>
		<path fill="#BCBCBC" d="M1497.114,1503.656c-4.829-0.351-8.961-2.979-13.759-4.519c-1.487,4.244-1.292,8.414-0.894,12.49    c0.399,4.08,1.378,8.103,2.103,12.151c-4.506,0.782-6.439-0.33-7.398-4.313c-0.224-0.929-0.456-1.886-0.466-2.832    c-0.083-7.509-0.194-15.019-0.121-22.526c0.028-2.887,1.961-3.917,4.535-2.692c0.717,0.342,1.378,0.806,2.044,1.246    c3.348,2.208,6.84,4.127,10.666,5.389c0.455,0.15,0.908,0.312,1.343,0.51C1497.623,1499.678,1497.753,1500.008,1497.114,1503.656z    "/>
	</g>
</g>
<g>
	<g>
		<path fill="#66D3FD" d="M1361.915,1741.93c0.684-2.142-0.307-2.954-1.307-3.811c-3.522-3.017-7.097-5.978-10.515-9.109    c-17.244-15.801-30.609-34.316-39.122-56.201c-4.957-12.743-8.035-25.917-9.36-39.533c-1.321-13.567-1.471-27.149-0.726-40.736    c0.797-14.558,3.161-28.91,6.125-43.173c2.869-13.804,7.335-27.141,11.535-40.564c2.67-8.536,5.045-17.174,7.237-25.847    c2.707-10.709,2.598-21.602,0.648-32.389c-2.161-11.951-4.86-23.803-7.226-35.718c-0.347-1.75-1.128-2.897-2.639-3.708    c-1.408-0.757-2.743-1.651-4.164-2.38c-1.362-0.699-2.254-1.721-2.732-3.161c-2.731-8.235-4.354-16.69-5.029-25.333    c-0.024-0.306,0.107-0.624,0.195-1.092c2.219-2.303,5.738-2.418,8.39-4.314c0-4.66,0-9.279,0-13.774    c-1.553-1.877-3.122-3.491-4.359-5.327c-2.67-3.962-2.829-7.155,1.688-10.824c1.109-0.902,2.355-1.635,3.554-2.457    c3.006-13.778,6.008-27.508,8.974-41.247c0.127-0.59-0.082-1.252-0.143-1.977c-0.492-0.402-0.942-0.852-1.466-1.188    c-8.75-5.615-13.35-13.949-15.674-23.799c-3.011-12.751,0.747-23.72,9.046-33.332c5.005-5.796,11.374-9.779,18.571-12.382    c9.435-3.413,18.237-1.817,26.526,3.504c0.806,0.517,1.527,1.163,2.319,1.703c1.933,1.317,2.753,1.298,4.775-0.076    c0.396-0.269,0.763-0.582,1.141-0.878c17.392-13.604,36.91-22.875,58.249-28.321c7.427-1.896,14.95-3.43,22.464-4.963    c2.326-0.475,4.058-1.331,5.492-3.34c4.418-6.192,10.823-9.339,18.068-10.821c2.145-0.438,4.521-0.441,6.672-0.025    c7.272,1.407,13.695,4.548,18.143,10.698c1.561,2.158,3.37,3.097,5.889,3.516c11.847,1.973,23.455,4.954,34.852,8.729    c16.089,5.329,30.779,13.317,44.279,23.533c0.383,0.29,0.756,0.592,1.14,0.88c3.609,2.716,3.637,2.74,7.438,0.009    c4.796-3.446,10.169-5.439,16-5.917c2.501-0.205,5.168,0.055,7.592,0.719c15.035,4.121,25.743,13.137,30.878,28.138    c3.249,9.49,1.472,18.639-2.364,27.527c-2.456,5.692-6.207,10.419-11.362,13.958c-0.528,0.362-1.034,0.759-1.582,1.087    c-1.466,0.88-1.748,2.178-1.378,3.727c0.297,1.244,0.616,2.483,0.888,3.733c2.475,11.399,4.981,22.792,7.364,34.211    c0.354,1.698,0.921,2.953,2.459,3.827c1.101,0.625,2.152,1.408,3.056,2.294c2.532,2.487,3.05,5.167,1.285,8.26    c-1.253,2.195-2.969,4.126-4.923,6.777c-0.042,1.619-0.13,4.002-0.162,6.385c-0.031,2.382-0.007,4.765-0.007,7.516    c2.708,1.252,5.556,2.568,8.266,3.822c0.775,2.768-0.159,5.089-0.431,7.428c-0.719,6.207-2.095,12.281-3.949,18.253    c-0.649,2.092-1.773,3.528-3.725,4.681c-6.307,3.729-5.401,1.729-6.973,9.719c-1.912,9.723-4.096,19.393-5.995,29.118    c-2.517,12.889-2.532,25.782,0.97,38.501c2.715,9.858,5.559,19.693,8.748,29.406c5.499,16.748,9.789,33.772,12.545,51.176    c3.268,20.622,4.083,41.336,2.45,62.174c-1.285,16.405-4.88,32.199-11.265,47.369c-8.523,20.252-21.318,37.442-37.411,52.261    c-3.527,3.247-7.236,6.299-10.868,9.433c-1.021,0.881-1.819,1.818-1.073,3.388c1.486,0.886,3.273,0.895,4.993,1.144    c8.28,1.199,16.239,3.519,23.879,6.908c4.263,1.892,8.268,4.254,11.623,7.524c1.47,1.433,2.844,3.065,3.862,4.837    c1.81,3.148,1.21,5.677-1.553,8.08c-0.477,0.415-1.126,0.641-1.571,1.079c-0.754,0.746-0.97,1.707-0.332,2.604    c0.547,0.771,1.271,1.419,1.934,2.104c3.022,3.124,5.716,6.491,7.434,10.521c2.955,6.932,0.27,12.676-6.917,15.062    c-3.451,1.146-6.933,1.049-10.435,0.453c-8.269-1.409-16.01-4.401-23.524-8.02c-15.835-7.624-29.949-17.769-42.981-29.483    c-0.476-0.428-0.989-0.832-1.381-1.33c-1.911-2.426-4.209-2.356-6.895-1.424c-8.936,3.103-18.104,5.341-27.493,6.478    c-6.183,0.748-12.407,1.321-18.628,1.539c-6.869,0.24-13.755-0.055-20.633-0.048c-8.478,0.009-16.956,0.041-25.433,0.146    c-17.75,0.22-35.053-2.406-51.904-7.998c-0.757-0.251-1.509-0.546-2.288-0.69c-1.299-0.242-2.533-0.122-3.553,0.9    c-0.789,0.792-1.646,1.517-2.477,2.267c-13.01,11.742-27.124,21.888-42.94,29.545c-7.507,3.634-15.249,6.622-23.51,8.076    c-3.666,0.646-7.347,0.869-10.882-0.526c-1.61-0.635-3.247-1.455-4.548-2.568c-3.048-2.607-4.186-5.974-3.034-9.928    c1.188-4.076,3.485-7.527,6.246-10.684c1.157-1.322,2.478-2.499,3.639-3.817c0.907-1.029,0.861-2.709-0.275-3.39    c-2.219-1.33-3.87-3.102-3.855-5.674c0.013-2.461,1.479-4.503,3.111-6.33c3.141-3.514,6.963-6.129,11.141-8.2    c8.23-4.079,16.95-6.628,26.024-7.996C1358.461,1742.573,1360.169,1742.236,1361.915,1741.93z M1474.286,1202.803    c-5.182,0.505-12.671,1.11-20.125,2.014c-3.95,0.479-7.931,1.162-11.734,2.302c-10.116,3.032-19.879,7.024-29.459,11.474    c-14.402,6.687-27.203,15.619-37.616,27.631c-13.834,15.958-24.884,33.652-31.939,53.68c-3.15,8.942-5.424,18.058-5.471,27.619    c-0.041,8.316-0.073,16.632-1.275,24.892c-0.158,1.085-0.314,2.317,0.804,3.064c1.246,0.833,2.079-0.195,2.918-0.856    c1.004-0.79,1.923-1.687,2.898-2.515c4.509-3.831,8.928-7.774,13.554-11.46c18-14.34,37.254-26.378,59.456-33.345    c15.829-4.967,31.987-7.901,48.478-8.682c15.021-0.71,30.019-0.07,44.933,2.49c21.512,3.692,41.742,10.63,60.417,22.042    c13.013,7.951,25.011,17.222,36.443,27.267c1.562,1.372,3.097,2.776,4.685,4.117c0.833,0.704,1.725,1.67,2.937,0.953    c1.161-0.686,0.811-1.964,0.782-3.048c-0.025-0.958-0.117-1.917-0.246-2.868c-0.858-6.36-0.976-12.759-0.848-19.155    c0.188-9.391-1.586-18.427-4.444-27.318c-6.101-18.982-16.156-35.782-28.371-51.368c-9.799-12.503-21.735-22.505-35.83-29.894    c-11.786-6.179-24.118-11.026-36.778-15.068c-1.515-0.484-3.098-0.796-4.67-1.055    C1494.781,1204.236,1485.724,1203.27,1474.286,1202.803z M1455.815,1501.163c-0.483,4.669-0.231,9.437,0.558,14.146    c0.79,4.715,3.767,7.278,8.568,7.468c7.736,0.306,8.125-0.996,8.444-7.108c0.366-7.003,0.146-14.038,0.119-21.06    c-0.003-0.68-0.451-1.357-0.729-2.141C1467.119,1495.368,1461.759,1498.116,1455.815,1501.163z M1478.601,1492.287    c-0.18,1.83-0.383,2.929-0.38,4.027c0.015,6.37-0.03,12.743,0.157,19.109c0.19,6.468,1.215,7.546,8.174,7.39    c0.477-0.011,0.958-0.034,1.43-0.104c3.477-0.508,5.863-2.392,6.929-5.755c0.428-1.351,0.732-2.781,0.817-4.191    c0.182-3.02,0.229-6.05,0.234-9.075c0.002-1.072-0.282-2.144-0.409-3.035c-3.039-1.344-5.828-2.51-8.556-3.804    C1484.32,1495.58,1482.082,1493.446,1478.601,1492.287z M1466.742,1448.492c0.868-0.173,2.3-0.305,3.615-0.769    c1.036-0.365,1.944-1.198,1.995-2.433c0.055-1.326-0.485-2.491-1.635-3.22c-2.311-1.466-7.167-0.473-8.663,1.723    c-1.17,1.719-0.254,4.019,1.781,4.397C1464.607,1448.333,1465.403,1448.358,1466.742,1448.492z"/>
		<path fill="#66D3FD" d="M1484.568,1266.753c2.81-2.752,5.58-5.553,9.201-7.917c0.681,1.771,1.295,3.211,1.792,4.69    c1.679,4.991,3.309,9.999,4.976,14.995c0.403,1.209,0.713,2.501,1.381,3.555c0.456,0.718,1.409,1.206,2.238,1.573    c0.54,0.239,1.262,0.135,1.895,0.087c7.325-0.555,14.65-1.126,21.974-1.71c0.303-0.024,0.591-0.222,0.887-0.341    c1.345-1.29,1.094-2.854,0.846-4.468c-0.873-5.682-1.679-11.375-2.54-17.058c-1.053-6.947-2.081-13.897-3.224-20.83    c-0.789-4.797-0.955-4.838-5.897-4.688c-6.868,0.208-13.735,0.457-20.605,0.543c-2.402,0.03-4.287,0.805-6,2.447    c-1.724,1.653-3.625,3.122-5.448,4.671c0.215-0.576,0.288-1.282,0.674-1.701c0.97-1.056,2.071-1.994,3.139-2.958    c4.262-3.85,4.261-3.927,9.656-4.128c7.511-0.28,15.025-0.433,22.539-0.62c0.621-0.015,1.245,0.13,2.151,0.233    c1.723,5.345,1.854,10.96,2.855,16.4c1.014,5.497,1.628,11.066,2.456,16.598c0.824,5.506,1.697,11.004,2.573,16.664    c-0.778,0.345-1.316,0.767-1.882,0.807c-9.389,0.666-18.78,1.283-28.443,1.929c-3.27-7.763-5.188-15.851-8.383-23.815    c-0.983,0.327-1.929,0.43-2.604,0.913c-1.294,0.925-2.456,2.043-3.633,3.125C1486.399,1266.43,1485.61,1266.89,1484.568,1266.753z    "/>
		<path fill="#66D3FD" d="M1459.297,1236.086c-2.039-0.304-4.069-0.794-6.117-0.879c-6.869-0.285-13.743-0.426-20.615-0.621    c-0.479-0.013-0.961-0.047-1.438-0.012c-1.777,0.13-2.585,0.701-2.954,2.548c-0.595,2.974-1.038,5.979-1.495,8.979    c-1.515,9.95-3.008,19.904-4.511,29.856c-0.048,0.316-0.129,0.627-0.173,0.943c-0.644,4.632,0.467,5.212,4.313,5.42    c6.223,0.337,12.432,0.92,18.647,1.382c0.794,0.059,1.598,0.046,2.395,0.012c1.235-0.053,2.141-0.698,2.612-1.803    c0.563-1.318,1.023-2.682,1.479-4.042c2.078-6.193,4.139-12.392,6.263-18.76c1.895,0.318,3.015,1.208,3.507,2.894    c-0.784-0.066-1.567-0.131-2.567-0.215c-2.1,3.573-2.911,7.662-4.285,11.524c-1.389,3.902-2.672,7.841-3.966,11.657    c-3.761,0.59-26.12-0.852-30.336-1.941c-0.035-0.717-0.206-1.512-0.092-2.264c2.386-15.773,4.804-31.542,7.198-47.198    c0.769-0.296,1.203-0.616,1.629-0.604c8.946,0.249,17.892,0.53,26.836,0.821c0.633,0.021,1.291,0.075,1.886,0.267    C1458.479,1234.361,1459.126,1235.037,1459.297,1236.086z"/>
		<path fill="#66D3FD" d="M1469.669,1269.515c1.771,0.182,2.567,1.783,3.862,2.659c1.84,1.246,2.988,1.296,4.782-0.12    c2.006-1.583,3.927-3.274,5.884-4.918c-0.04,0.313,0.031,0.713-0.135,0.927c-2.263,2.9-5.188,5.041-8.077,7.406    C1473.456,1273.627,1471.026,1272.162,1469.669,1269.515z"/>
		<path fill="#66D3FD" d="M1468.385,1243.713c-0.307-0.014-0.695,0.089-0.91-0.059c-3.152-2.184-6.234-4.45-8.367-7.738    c0.437,0.142,0.982,0.163,1.293,0.443C1463.087,1238.784,1465.73,1241.256,1468.385,1243.713z"/>
		<path fill="#66D3FD" d="M1477.525,1249.37c-0.489,0.674-0.978,1.348-1.646,2.268c-2.33-2.11-4.428-3.953-6.442-5.884    c-0.393-0.377-0.459-1.095-0.677-1.655c1.533,1.272,3.141,2.465,4.575,3.841    C1474.556,1249.109,1475.944,1249.436,1477.525,1249.37z"/>
		<path fill="#66D3FD" d="M1461.028,1261.836c3.133,1.701,6.671,4.85,8.823,7.85    C1466.765,1267.944,1463.18,1264.755,1461.028,1261.836z"/>
		<path fill="#66D3FD" d="M1485.67,1242.687c-2.335,2.144-4.656,4.304-7.023,6.412c-0.313,0.278-0.864,0.288-1.306,0.421    c1.738-2.833,4.489-4.619,6.975-6.67C1484.61,1242.605,1485.211,1242.732,1485.67,1242.687z"/>
	</g>
</g>
<g>
	<g>
		<path fill="#248DCC" d="M1362.386,1741.839c-0.358-1.21-0.394-2.222-0.904-2.845c-0.796-0.972-1.914-1.681-2.896-2.5    c-11.219-9.364-21.515-19.632-30.063-31.518c-13.78-19.16-22.543-40.415-25.908-63.81c-2.676-18.609-2.812-37.289-1.109-55.991    c2.125-23.35,7.123-46.08,14.456-68.348c3.397-10.316,6.371-20.781,9.234-31.262c3.302-12.087,3.318-24.355,0.925-36.608    c-2.207-11.294-4.65-22.542-6.861-33.835c-0.376-1.923-1.158-3.237-2.863-4.089c-0.714-0.356-1.349-0.89-2.083-1.184    c-3.082-1.233-4.602-3.565-5.5-6.707c-1.942-6.791-3.144-13.707-4.064-20.684c-0.143-1.083-0.02-2.202-0.02-3.61    c2.755-1.262,5.485-2.513,8.376-3.838c0.783-4.745-0.377-9.495,0.162-13.984c-1.498-1.737-2.846-3.109-3.972-4.645    c-3.272-4.463-3.336-8.064,1.804-11.855c0.897-0.662,1.86-1.236,3.009-1.993c0.947-4.213,1.937-8.558,2.897-12.908    c1.862-8.427,3.712-16.855,5.556-25.286c0.373-1.704,0.954-3.409,0.12-5.358c-0.365-0.277-0.845-0.691-1.37-1.034    c-9.023-5.881-13.672-14.551-15.694-24.829c-2.878-14.626,2.529-26.278,13.155-35.991c0.219-0.2,0.575-0.25,1.187-0.502    c0.274,0.649,0.671,1.277,0.805,1.957c0.522,2.665,0.796,5.388,1.458,8.014c3.601,14.282,12.821,23.607,26.104,29.279    c1.454,0.621,2.939,1.169,4.729,1.877c-0.697,1.469-1.275,2.748-1.902,4.001c-4.876,9.757-8.843,19.848-11.342,30.491    c-1.212,5.162-1.846,10.382-1.873,15.683c-0.042,8.158-0.083,16.317-1.268,24.417c-0.091,0.623-0.041,1.278,0.026,1.909    c0.129,1.219,1.504,1.943,2.472,1.248c1.166-0.837,2.248-1.792,3.353-2.712c6.518-5.419,12.91-10.997,19.574-16.229    c10.087-7.921,20.9-14.756,32.389-20.483c14.709-7.332,30.299-11.883,46.436-14.798c15.042-2.717,30.216-3.375,45.412-2.691    c16.664,0.749,32.99,3.655,48.979,8.657c22.528,7.046,42.027,19.313,60.248,33.908c4.367,3.499,8.549,7.229,12.811,10.859    c0.853,0.726,1.647,1.522,2.528,2.21c0.964,0.751,1.874,2.11,3.289,1.247c1.303-0.793,0.886-2.303,0.734-3.516    c-1.074-8.596-1.013-17.234-1.122-25.872c-0.098-7.743-1.843-15.223-4.238-22.544c-2.589-7.911-5.654-15.634-9.595-22.988    c-0.446-0.832-0.778-1.725-1.25-2.786c1.312-0.529,2.457-1.021,3.623-1.458c5.146-1.928,9.774-4.724,13.984-8.242    c7.426-6.206,11.765-14.208,13.701-23.591c0.516-2.5,0.894-5.027,1.393-7.871c0.773,0.343,1.564,0.494,2.081,0.953    c8.01,7.123,13.157,16.03,13.369,26.716c0.258,13.025-3.986,24.638-15.079,32.588c-2.816,2.019-3.524,3.806-2.743,7.14    c2.843,12.133,5.371,24.341,7.96,36.532c0.292,1.374,0.944,2.292,2.102,3.012c1.082,0.673,2.173,1.38,3.1,2.244    c2.744,2.558,3.303,5.383,1.411,8.636c-1.271,2.184-3.004,4.098-5.015,6.78c0,1.625,0,4.014,0,6.402c0,2.377,0,4.755,0,7.307    c2.848,1.344,5.692,2.687,8.733,4.122c-0.315,2.621-0.572,4.984-0.89,7.339c-0.793,5.871-2.013,11.643-3.726,17.326    c-0.784,2.6-2.081,4.391-4.513,5.778c-5.734,3.271-4.863,1.576-6.354,9.073c-1.933,9.72-4.053,19.402-5.988,29.121    c-2.598,13.05-2.645,26.099,0.959,38.965c3.232,11.54,6.656,23.033,10.317,34.444c5.93,18.485,9.916,37.361,12.348,56.605    c2.397,18.98,2.589,37.999,0.533,56.973c-3.426,31.636-15.715,59.442-37.193,83.058c-6.359,6.991-13.154,13.532-20.523,19.463    c-0.746,0.602-1.568,1.17-2.125,1.924c-0.422,0.572-0.478,1.415-0.707,2.175c1.618,1.36,3.443,1.25,5.124,1.49    c8.285,1.181,16.242,3.483,23.898,6.842c4.127,1.81,8.018,4.042,11.32,7.119c1.618,1.507,3.147,3.222,4.291,5.102    c2.03,3.338,1.434,5.895-1.555,8.447c-0.359,0.308-0.848,0.466-1.207,0.774c-1.114,0.955-1.207,2.202-0.195,3.353    c0.737,0.838,1.617,1.55,2.374,2.373c2.722,2.957,5.166,6.12,6.719,9.865c2.794,6.737,0.189,12.396-6.716,14.807    c-3.594,1.253-7.23,1.127-10.899,0.509c-6.508-1.097-12.682-3.275-18.712-5.878c-13.158-5.678-25.145-13.308-36.358-22.161    c-4.264-3.366-8.402-6.913-12.374-10.617c-2.277-2.123-4.382-2.573-7.338-1.532c-8.613,3.035-17.471,5.227-26.549,6.303    c-6.345,0.753-12.719,1.419-19.097,1.666c-6.867,0.265-13.755-0.039-20.633-0.031c-8.318,0.008-16.637,0.02-24.954,0.142    c-18.074,0.265-35.701-2.33-52.853-8.069c-0.606-0.203-1.2-0.471-1.822-0.588c-1.463-0.273-2.849-0.199-3.989,0.986    c-0.774,0.805-1.632,1.531-2.465,2.279c-13.034,11.712-27.143,21.865-42.977,29.492c-7.515,3.619-15.259,6.606-23.525,8.029    c-3.5,0.603-7.009,0.786-10.425-0.463c-1.192-0.436-2.401-0.921-3.464-1.601c-4.188-2.676-5.669-6.896-4.172-11.632    c1.179-3.73,3.335-6.896,5.844-9.83c1.141-1.335,2.456-2.519,3.627-3.829c1.156-1.293,1.056-2.631-0.223-3.726    c-0.482-0.412-1.105-0.668-1.559-1.104c-2.285-2.194-2.85-4.575-1.291-7.336c1.081-1.914,2.531-3.694,4.103-5.244    c3.336-3.291,7.361-5.624,11.625-7.517c7.641-3.392,15.605-5.691,23.885-6.892    C1358.646,1742.559,1360.343,1742.205,1362.386,1741.839z M1326.876,1596.881c-0.158,1.314-0.335,2.409-0.415,3.511    c-0.893,12.369,0.069,24.663,2.551,36.748c7.132,34.729,25.739,61.537,56.218,79.91c11.711,7.06,24.271,12.182,37.341,16.08    c14.599,4.354,29.547,6.966,44.665,8.663c5.901,0.662,11.816,0.635,17.711-0.041c12.559-1.44,25.017-3.479,37.26-6.68    c14.442-3.775,28.343-8.943,41.38-16.299c26.146-14.753,44.439-36.199,54.536-64.473c5.768-16.151,7.724-32.941,7.315-50.03    c-0.057-2.363,0.169-4.772-0.524-7.208c-0.704,0-1.396-0.188-1.907,0.035c-1.606,0.702-3.146,1.557-4.71,2.357    c-3.276,1.678-6.524,3.503-10.322,3.603c-2.783,0.074-4.261,1.554-5.465,3.914c-1.447,2.836-3.164,5.559-4.994,8.168    c-2.501,3.567-5.677,6.489-9.37,8.831c-4.113,2.609-8.624,3.535-13.332,2.512c-5.627-1.223-9.355-4.793-10.8-10.399    c-0.831-3.223-2.534-4.841-5.931-5.146c-2.345-0.211-4.737-0.898-6.907-1.838c-3.872-1.675-5.251-4.517-4.105-8.546    c0.868-3.056,2.216-5.978,3.428-8.928c0.258-0.627,0.853-1.116,1.465-1.888c0.483,1.945,0.831,3.499,1.258,5.03    c1.218,4.377,4.029,7.209,8.43,8.329c2.005,0.51,4.065,0.919,6.124,1.078c2.16,0.168,3.611,1.074,4.46,3.034    c0.19,0.438,0.422,0.865,0.683,1.266c2.312,3.549,4.895,4.436,9.056,3.202c2.66-0.789,4.866-2.354,7.108-3.903    c8.24-5.691,11.942-14.483,16.035-23.024c-2.483-0.576-4.813-1.081-7.122-1.667c-1.159-0.294-1.98-1.042-2.182-2.281    c-0.181-1.113,0.679-2.289,2.107-2.866c0.738-0.298,1.519-0.497,2.287-0.711c3.563-0.995,6.271-3.197,8.255-6.214    c2.564-3.899,4.513-8.104,5.297-12.757c1.508-8.94,1.309-17.819-0.986-26.628c-1.047-4.021-1.912-8.089-2.994-12.099    c-2.123-7.867-4.266-15.729-6.544-23.552c-1.659-5.7-4.299-11.002-6.989-16.281c-2.804-5.504-7.159-8.419-13.345-8.611    c-5.272-0.164-10.546-0.565-15.815-0.507c-11.181,0.123-21.982-1.785-32.386-5.774c-6.711-2.573-13.31-5.448-19.914-8.29    c-4.563-1.964-8.96-4.229-12.524-7.836c-0.89-0.9-2.003-1.588-3.045-2.328c-4.708-3.337-9.925-5.053-15.725-5.001    c-5.116,0.046-10.232,0.043-15.348,0.002c-5.805-0.046-11.024,1.703-15.697,5.079c-1.941,1.402-3.735,3.008-5.636,4.469    c-1.261,0.97-2.498,2.043-3.909,2.738c-9.759,4.801-19.651,9.312-30.031,12.632c-7.956,2.544-16.077,4.21-24.482,4.199    c-3.359-0.004-6.721-0.021-10.076,0.103c-3.673,0.137-7.347,0.358-11.009,0.676c-4.788,0.416-8.466,2.682-10.853,6.917    c-0.628,1.114-1.265,2.224-1.866,3.352c-3.246,6.094-5.75,12.501-7.562,19.143c-2.564,9.402-4.625,18.948-7.394,28.288    c-2.271,7.664-2.639,15.406-2.398,23.254c0.195,6.359,2.047,12.263,5.342,17.713c2.147,3.553,5.023,6.185,9.092,7.355    c0.768,0.221,1.553,0.405,2.289,0.707c1.365,0.56,2.139,1.776,1.916,2.977c-0.231,1.249-1.103,1.914-2.27,2.193    c-2.317,0.557-4.646,1.069-7.021,1.611c1.771,3.556,3.473,7.133,5.314,10.637c3.207,6.102,7.936,10.813,13.791,14.352    c1.747,1.055,3.749,1.829,5.735,2.313c2.713,0.66,5.061-0.331,6.746-2.596c0.664-0.892,1.195-1.893,1.71-2.883    c0.726-1.396,1.804-2.143,3.395-2.281c1.591-0.139,3.177-0.381,4.752-0.656c5.76-1.007,9.587-4.116,10.836-10.025    c0.255-1.208,0.64-2.389,1.114-4.127c2.197,3.627,3.731,6.918,4.596,10.498c1.19,4.924-0.157,7.604-4.766,9.495    c-1.028,0.422-2.122,0.71-3.209,0.95c-1.404,0.311-2.823,0.583-4.25,0.739c-2.179,0.239-3.476,1.436-4.125,3.455    c-0.342,1.065-0.618,2.158-1.044,3.189c-2.302,5.578-6.561,8.486-12.51,8.962c-4.131,0.331-7.922-0.748-11.379-3.013    c-3.932-2.575-7.244-5.81-9.837-9.713c-1.677-2.524-3.18-5.173-4.621-7.841c-0.999-1.85-2.34-3.02-4.48-3.079    c-3.806-0.106-7.107-1.724-10.388-3.408c-1.564-0.804-3.074-1.72-4.671-2.448    C1328.622,1596.971,1327.793,1597.018,1326.876,1596.881z"/>
		<path fill="#248DCC" d="M1407.14,1221.249c-0.514-3.619-0.935-6.576-1.357-9.549c1.568-1.475,3.506-1.838,5.274-2.461    c12.073-4.251,24.437-7.438,37.045-9.604c2.869-0.493,4.853-1.583,6.673-3.946c4.927-6.399,11.755-9.982,19.706-10.485    c9.014-0.57,16.554,3.286,22.223,10.181c2.114,2.571,4.285,3.78,7.481,4.339c12.439,2.177,24.652,5.321,36.576,9.523    c1.636,0.576,3.231,1.266,5.004,1.966c0.047,3.381-0.603,6.454-1.268,9.836c-1.244-0.479-2.276-0.792-3.234-1.259    c-7.616-3.71-15.438-6.919-23.388-9.843c-6.465-2.378-13.028-4.167-19.878-5.167c-14.497-2.114-28.925-2.086-43.444-0.163    c-9.458,1.253-18.323,4.286-27.08,7.761c-5.635,2.236-11.12,4.847-16.673,7.288    C1409.792,1220.108,1408.781,1220.539,1407.14,1221.249z"/>
		<path fill="#248DCC" d="M1484.568,1266.753c2.81-2.751,5.578-5.553,9.201-7.917c0.681,1.771,1.294,3.21,1.792,4.689    c1.679,4.991,3.309,9.999,4.976,14.994c0.403,1.21,0.713,2.502,1.381,3.556c0.456,0.718,1.409,1.206,2.238,1.573    c0.54,0.239,1.262,0.135,1.895,0.087c7.325-0.555,14.65-1.126,21.974-1.71c0.302-0.024,0.591-0.222,0.887-0.341    c1.345-1.29,1.094-2.854,0.846-4.468c-0.873-5.682-1.679-11.374-2.54-17.058c-1.052-6.946-2.081-13.897-3.223-20.829    c-0.79-4.797-0.956-4.838-5.898-4.688c-6.867,0.208-13.735,0.457-20.605,0.544c-2.402,0.03-4.286,0.805-5.998,2.448    c-1.723,1.654-3.626,3.121-5.45,4.669c0.215-0.576,0.288-1.282,0.674-1.701c0.971-1.056,2.072-1.993,3.139-2.957    c4.263-3.851,4.263-3.925,9.655-4.129c7.351-0.279,14.706-0.434,22.06-0.621c0.78-0.02,1.563,0.099,2.611,0.171    c1.743,5.408,1.874,11.023,2.876,16.462c1.014,5.497,1.628,11.066,2.456,16.598c0.824,5.506,1.697,11.004,2.573,16.664    c-0.778,0.345-1.316,0.767-1.882,0.807c-9.389,0.666-18.78,1.283-28.442,1.929c-3.271-7.763-5.189-15.851-8.384-23.815    c-0.983,0.327-1.929,0.43-2.604,0.913c-1.294,0.925-2.455,2.043-3.633,3.125C1486.399,1266.43,1485.61,1266.889,1484.568,1266.753    z"/>
		<path fill="#248DCC" d="M1459.297,1236.086c-2.039-0.304-4.069-0.794-6.117-0.879c-6.869-0.285-13.743-0.426-20.615-0.621    c-0.479-0.013-0.961-0.047-1.437-0.012c-1.778,0.13-2.586,0.702-2.955,2.548c-0.594,2.974-1.038,5.979-1.494,8.979    c-1.516,9.951-3.008,19.904-4.512,29.857c-0.048,0.316-0.128,0.627-0.173,0.943c-0.645,4.633,0.468,5.211,4.313,5.42    c6.222,0.337,12.431,0.92,18.647,1.382c0.794,0.059,1.598,0.046,2.396,0.012c1.234-0.053,2.141-0.698,2.612-1.803    c0.562-1.318,1.023-2.682,1.479-4.042c2.078-6.193,4.139-12.392,6.263-18.76c1.895,0.318,3.015,1.208,3.507,2.894    c-0.784-0.066-1.567-0.132-2.569-0.216c-2.097,3.572-2.908,7.661-4.284,11.523c-1.389,3.902-2.671,7.842-3.965,11.66    c-3.754,0.588-26.107-0.852-30.335-1.939c-0.036-0.717-0.208-1.512-0.094-2.264c2.385-15.773,4.803-31.541,7.198-47.2    c0.769-0.296,1.203-0.617,1.628-0.605c8.946,0.249,17.892,0.53,26.837,0.821c0.633,0.021,1.29,0.075,1.886,0.267    C1458.479,1234.361,1459.126,1235.037,1459.297,1236.086z"/>
		<path fill="#248DCC" d="M1469.669,1269.515c1.771,0.182,2.567,1.783,3.862,2.659c1.84,1.246,2.988,1.296,4.782-0.12    c2.006-1.583,3.927-3.274,5.884-4.918c-0.039,0.313,0.033,0.713-0.134,0.927c-2.264,2.898-5.188,5.041-8.078,7.405    C1473.456,1273.628,1471.026,1272.162,1469.669,1269.515z"/>
		<path fill="#248DCC" d="M1468.386,1243.713c-0.308-0.014-0.697,0.089-0.91-0.059c-3.143-2.194-6.243-4.441-8.368-7.738    c0.437,0.142,0.982,0.163,1.293,0.443C1463.087,1238.784,1465.73,1241.256,1468.386,1243.713z"/>
		<path fill="#248DCC" d="M1477.525,1249.37c-0.489,0.674-0.978,1.348-1.646,2.268c-2.33-2.11-4.428-3.953-6.442-5.884    c-0.393-0.377-0.459-1.095-0.677-1.655c1.533,1.272,3.141,2.465,4.575,3.841    C1474.556,1249.109,1475.944,1249.436,1477.525,1249.37z"/>
		<path fill="#248DCC" d="M1461.028,1261.836c3.132,1.701,6.672,4.85,8.823,7.85    C1466.769,1267.947,1463.176,1264.75,1461.028,1261.836z"/>
		<path fill="#248DCC" d="M1485.67,1242.687c-2.335,2.144-4.656,4.304-7.023,6.412c-0.313,0.278-0.864,0.288-1.306,0.421    c1.739-2.833,4.488-4.62,6.975-6.67C1484.61,1242.606,1485.211,1242.732,1485.67,1242.687z"/>
		<path fill="#248DCC" d="M1445.653,1502.769c3.755-2.214,6.569-2.317,8.42-0.409c2.027,2.092,1.958,3.557-0.557,7.449    c0.971,2.76,1.896,5.812,3.117,8.739c1.207,2.892,3.476,4.916,6.171,6.48c2.433,1.412,4.836,1.573,7.189-0.108    c1.717-1.228,3.423-2.112,5.707-2.008c1.982,0.09,3.77,0.245,5.364,1.54c3.117,2.532,6.168,1.954,9.201-0.251    c2.11-1.534,3.82-3.378,4.942-5.746c1.375-2.9,2.375-5.913,2.785-8.997c-0.092-0.271-0.112-0.444-0.2-0.57    c-2.151-3.097-2.208-4.025-0.362-6.224c1.595-1.899,4.358-2.277,6.947-0.914c0.547,0.288,1.029,0.697,1.503,1.023    c3.181-0.668,5.772-2.177,8.123-4.159c0.731-0.616,1.389-1.387,2.224-1.788c0.627-0.301,1.548-0.327,2.225-0.114    c1.005,0.316,1.346,1.268,1.352,2.304c0.008,1.39-0.759,2.413-1.637,3.356c-2.792,2.998-6.209,4.982-10.13,6.104    c-1.063,0.304-2.161,0.485-3.485,0.776c-0.376,1.358-0.688,2.735-1.141,4.064c-1.024,3.013-1.869,6.12-3.24,8.972    c-2.085,4.334-5.709,7.226-10.052,9.193c-3.586,1.624-7.126,1.539-10.556-0.503c-1.219-0.726-2.441-1.446-3.691-2.188    c-1.471,0.87-2.811,1.73-4.211,2.476c-2.991,1.593-6.075,1.771-9.244,0.502c-4.771-1.912-8.586-4.97-10.896-9.59    c-1.204-2.408-2.017-5.022-2.874-7.588c-0.551-1.65-0.859-3.382-1.308-5.205c-1.123-0.283-2.191-0.542-3.254-0.821    c-3.952-1.037-7.422-2.955-10.22-5.932c-0.839-0.894-1.447-2.091-1.876-3.253c-0.344-0.931,0.124-1.886,0.957-2.516    c0.859-0.651,1.791-0.649,2.662-0.044c0.652,0.453,1.249,0.989,1.843,1.52C1439.753,1500.394,1442.35,1501.899,1445.653,1502.769z    "/>
		<path fill="#248DCC" d="M1454.059,1551.357c24.286,5.119,25.601,3.172,43.57-0.041    C1489.384,1564.074,1463.273,1564.099,1454.059,1551.357z"/>
	</g>
</g>
<g>
	<g>
		<path fill="#F5D29E" d="M1475.888,1488.461c-3.118,1.783-6.029,3.432-8.927,5.106c-5.277,3.05-10.711,5.769-16.772,6.82    c-7.016,1.216-13.989,1.303-20.672-1.736c-5.438-2.472-9.126-6.574-10.356-12.391c-0.964-4.559-0.716-9.19,1.179-13.634    c2.17-5.089,5.425-9.385,9.302-13.245c4.933-4.911,10.756-8.508,17.112-11.255c3.925-1.697,5.499-1.22,8.441,1.862    c6.662,6.98,14.977,9.384,24.383,8.473c1.733-0.168,3.471-0.614,5.128-1.167c4.75-1.583,9.162-3.735,12.324-7.857    c1.802-2.349,4.261-2.827,6.867-1.752c11.083,4.57,20.239,11.477,26.182,22.136c2.225,3.99,3.279,8.263,3.013,12.875    c-0.356,6.162-2.947,11.038-8.119,14.43c-3.253,2.132-6.878,3.424-10.747,3.78c-7.434,0.686-14.687-0.109-21.522-3.312    c-2.888-1.353-5.699-2.874-8.502-4.397C1481.537,1491.75,1478.931,1490.201,1475.888,1488.461z"/>
		<path fill="#F5D29E" d="M1359.742,1757.1c-7.473-0.533-14.365,1.243-20.855,4.566c-2.987,1.53-6.029,3.014-8.801,4.881    c-2.831,1.908-5.277,1.854-8.014-0.47c0.182-0.799,0.15-1.853,0.638-2.537c0.817-1.15,1.88-2.173,2.991-3.06    c2.766-2.209,5.895-3.806,9.152-5.179c11.662-4.918,23.917-6.841,36.47-7.224c0.905-0.028,1.906,0.293,2.725,0.717    c5.813,3.014,11.591,6.092,17.37,9.169c0.26,0.138,0.417,0.468,0.805,0.922c-0.331,0.563-0.571,1.362-1.104,1.823    c-15.063,13.065-31.165,24.51-49.958,31.692c-5.858,2.239-11.854,3.91-18.218,3.585c-1.426-0.073-2.885-0.213-4.247-0.606    c-1.479-0.427-2.352-1.534-2.458-3.187c-0.149-2.325,0.519-4.421,1.618-6.415c1.954-3.546,4.663-6.446,7.615-9.185    c8.457-7.844,18.259-13.404,29.006-17.415C1356.245,1758.52,1357.988,1757.794,1359.742,1757.1z"/>
		<path fill="#F5D29E" d="M1559.085,1758.848c1.189-0.73,1.964-1.266,2.79-1.702c4.944-2.606,9.913-5.167,14.844-7.799    c1.279-0.683,2.473-1.375,4.02-1.31c9.772,0.419,19.431,1.549,28.783,4.568c5.331,1.721,10.609,3.613,15.213,6.912    c1.54,1.104,2.996,2.407,4.224,3.847c1.337,1.566,0.865,2.918-0.895,3.86c-1.847,0.99-3.513,1.052-5.388-0.122    c-2.841-1.778-5.818-3.343-8.776-4.927c-6.14-3.287-12.703-5.175-19.642-5.743c-0.694-0.057-1.401,0.05-2.206,0.646    c0.992,0.414,1.988,0.819,2.976,1.243c4.402,1.89,8.852,3.678,13.191,5.701c7.624,3.555,14.093,8.791,20.115,14.554    c2.053,1.963,3.764,4.362,5.27,6.787c0.981,1.577,1.562,3.517,1.877,5.37c0.497,2.921-0.799,4.589-3.767,5.005    c-4.149,0.581-8.285,0.317-12.377-0.648c-5.626-1.326-10.984-3.398-16.213-5.816c-15.662-7.244-29.478-17.249-42.451-28.5    C1560.21,1760.371,1559.878,1759.819,1559.085,1758.848z"/>
		<path fill="#F5D29E" d="M1364.92,1574.596c7.108-0.938,10.75-5.569,14.041-10.672c0.838,0.395,1.489,0.55,1.942,0.937    c7.018,5.986,12.019,13.226,13.527,22.5c0.329,2.021,0.371,4.157,0.125,6.188c-0.342,2.823-2.095,4.131-4.95,4.17    c-2.479,0.033-4.765-0.758-6.77-2.099c-1.981-1.324-3.918-2.794-5.592-4.48c-4.174-4.205-7.808-8.873-11.069-13.822    C1365.757,1576.685,1365.526,1575.93,1364.92,1574.596z"/>
		<path fill="#F5D29E" d="M1572.904,1563.975c3.159,5.26,7.01,9.6,13.153,10.61c0.577,1.33-0.011,2.159-0.574,2.877    c-3.545,4.517-6.978,9.139-10.788,13.422c-1.867,2.101-4.385,3.675-6.768,5.248c-1.735,1.146-3.794,1.664-5.932,1.585    c-2.832-0.105-4.583-1.503-4.78-4.319c-0.166-2.366-0.157-4.826,0.302-7.14c1.751-8.828,6.669-15.766,13.443-21.487    C1571.405,1564.396,1572.085,1564.299,1572.904,1563.975z"/>
		<path fill="#F5D29E" d="M1351.18,1587.073c4.207-1.36,7.331-3.949,9.747-7.828c0.747,0.631,1.466,0.999,1.833,1.586    c4.335,6.938,9.432,13.214,15.76,18.446c0.225,0.186,0.302,0.55,0.596,1.115c-0.163,0.521-0.29,1.311-0.64,1.983    c-2.393,4.595-5.468,5.694-10.254,3.69c-0.731-0.307-1.438-0.693-2.108-1.118c-5.176-3.284-9.577-7.388-12.943-12.529    C1352.23,1590.984,1351.146,1589.553,1351.18,1587.073z"/>
		<path fill="#F5D29E" d="M1600.539,1587.376c-0.229,0.936-0.275,2.074-0.767,2.97c-3.611,6.593-8.896,11.542-15.355,15.292    c-0.274,0.159-0.56,0.316-0.858,0.415c-5.91,1.954-8.17,0.642-10.257-3.657c-0.273-0.564-0.481-1.161-0.776-1.882    c1.604-2.62,4.362-4.104,6.265-6.395c2.032-2.447,4.173-4.808,6.112-7.324c1.827-2.371,3.453-4.896,5.386-7.664    c1.694,1.822,3.018,3.588,4.68,4.935C1596.542,1585.34,1598.471,1586.176,1600.539,1587.376z"/>
	</g>
</g>
<g>
	<g>
		<path fill="#D29A75" d="M1316.199,1790.562c4.296-0.7,7.983-0.994,11.502-1.926c16.772-4.438,31.315-12.72,43.062-25.634    c1.068-1.174,2.133-2.423,2.865-3.813c1.152-2.188-0.027-4.203-2.503-4.505c-3.711-0.454-7.321,0.334-10.938,1.011    c-3.901,0.729-7.811,1.414-12.037,2.177c0.551-2.109,2.152-2.839,3.016-4.112c0.794-1.171,1.487-2.411,2.291-3.728    c5.784-1.74,11.911-1.432,17.938-1.945c0.882-0.075,1.89,0.32,2.713,0.743c5.683,2.922,11.335,5.903,16.985,8.887    c0.41,0.217,0.729,0.604,1.006,0.842c-0.056,0.486-0.007,0.845-0.146,1.101c-0.224,0.41-0.522,0.812-0.875,1.116    c-15.342,13.241-31.703,24.868-50.894,31.981c-5.429,2.013-10.98,3.466-16.843,3.245c-1.117-0.042-2.236-0.116-3.345-0.25    c-1.316-0.158-2.61-0.627-3.187-1.849C1316.369,1792.969,1316.406,1791.811,1316.199,1790.562z"/>
		<path fill="#D29A75" d="M1634.893,1790.314c0.979,1.445,0.82,2.768-0.064,3.74c-0.695,0.766-1.791,1.428-2.801,1.6    c-4.139,0.705-8.286,0.44-12.373-0.486c-6.266-1.421-12.209-3.778-17.976-6.547c-14.951-7.178-28.263-16.8-40.755-27.616    c-0.473-0.409-0.838-0.947-1.229-1.444c-0.087-0.11-0.071-0.301-0.178-0.817c0.597-0.431,1.269-1.044,2.047-1.456    c5.079-2.689,10.211-5.281,15.259-8.027c1.612-0.877,3.134-1.245,4.998-1.1c5.411,0.423,10.864,0.374,16.157,1.751    c1.855,2.498,3.716,5.004,5.963,8.029c-4.463-0.803-8.342-1.558-12.242-2.183c-2.989-0.479-6.001-0.821-9.01-1.16    c-0.783-0.089-1.605-0.01-2.388,0.122c-2.221,0.376-3.324,2.315-2.275,4.255c0.751,1.387,1.754,2.668,2.803,3.857    c4.893,5.549,10.489,10.287,16.76,14.213c9.279,5.811,19.082,10.378,29.95,12.316    C1629.887,1789.78,1632.273,1789.981,1634.893,1790.314z"/>
		<path fill="#D29A75" d="M1529.642,1470.007c0.561,0.661,1.065,1.063,1.32,1.587c2.095,4.307,2.67,8.903,1.892,13.556    c-0.886,5.294-3.669,9.51-8.36,12.28c-3.629,2.142-7.558,3.333-11.798,3.622c-8.197,0.56-15.908-1.108-23.14-4.92    c-4.2-2.213-3.84-1.231-6.011-6.283c0.557-0.999,1.357-0.446,2.012-0.222c1.812,0.62,3.585,1.354,5.388,2    c5.39,1.934,10.989,2.31,16.562,1.466c10.71-1.621,17.414-8.078,20.786-18.196    C1528.794,1473.394,1529.141,1471.839,1529.642,1470.007z"/>
		<path fill="#D29A75" d="M1422.268,1469.646c0.71,4.267,1.74,7.449,3.371,10.406c4.531,8.211,11.522,12.607,20.852,13.284    c5.828,0.423,11.474-0.375,16.901-2.615c1.446-0.597,2.947-1.061,4.576-1.64c-0.785,3.87-1.168,4.549-3.485,5.872    c-8.278,4.725-17.133,6.952-26.683,5.989c-3.868-0.391-7.506-1.585-10.792-3.681c-5.223-3.332-7.946-8.135-8.25-14.331    c-0.192-3.891,0.205-7.666,2.004-11.188C1421.028,1471.219,1421.449,1470.773,1422.268,1469.646z"/>
		<path fill="#D29A75" d="M1571.039,1593.326c0.243-1.453,0.461-2.678,0.65-3.906c0.461-2.995,1.056-5.979,1.327-8.991    c0.451-5.015-0.169-9.888-2.95-14.6c0.852-0.655,1.629-1.255,2.677-2.063c3.334,5.381,7.09,9.836,13.442,10.791    c-0.561,2.993-0.561,2.993-3.679,7.174C1577.041,1589.06,1574.692,1591.472,1571.039,1593.326z"/>
		<path fill="#D29A75" d="M1380.703,1593.454c-2.273-0.798-3.287-2.036-4.341-3.188c-3.875-4.232-7.493-8.67-10.535-13.55    c-0.306-0.49-0.38-1.125-0.508-1.524c0.269-0.367,0.34-0.576,0.451-0.601c5.476-1.202,9.354-4.451,12.121-9.24    c0.899-1.557,1.332-1.472,3.347,0.052c0.032,0.3,0.191,0.668,0.074,0.89c-2.896,5.455-3.126,11.271-2.293,17.205    C1379.457,1586.623,1380.066,1589.725,1380.703,1593.454z"/>
		<path fill="#D29A75" d="M1588.852,1602.225c-0.112-2.289,1.166-4.017,1.721-5.929c0.621-2.141,1.349-4.253,1.879-6.414    c0.488-1.99,0.776-4.028,1.188-6.237c2.386,1.259,4.474,2.359,6.767,3.569c-0.047,0.703,0.095,1.539-0.18,2.203    C1598.386,1593.877,1593.748,1599.082,1588.852,1602.225z"/>
		<path fill="#D29A75" d="M1362.803,1602.086c-5.29-3.691-9.494-8.109-11.971-14.259c0.736-0.543,1.294-1.06,1.942-1.411    c1.655-0.896,3.35-1.721,5.357-2.74C1359.001,1590.119,1361.084,1596.024,1362.803,1602.086z"/>
		<path fill="#D29A75" d="M1470.993,1491.091c0.728-2.812,2.325-4.612,5.216-4.45c2.625,0.147,3.981,1.928,4.731,4.467    c-1.622-0.797-3.245-1.594-5.031-2.472C1474.321,1489.429,1472.657,1490.26,1470.993,1491.091z"/>
	</g>
</g>
<g>
	<g>
		<path fill="#1E1E1E" d="M1311.387,1381.969c0.52-0.339,0.884-0.726,1.318-0.837c8.664-2.217,17.19-4.967,26.082-6.295    c3.224-0.481,5.793,0.043,8.484,1.99c5.883,4.258,12.39,7.166,19.689,8.313c4.71,0.741,9.242,0.317,13.777-0.775    c5.467-1.316,10.634-3.458,15.656-5.955c4.008-1.992,8.003-4.013,11.976-6.074c2.306-1.196,4.66-1.88,7.318-1.917    c11.352-0.159,22.702-0.472,34.053-0.718c1.119-0.024,2.239,0.037,3.359,0.037c1.543,0,2.745,0.615,3.728,1.818    c1.719,2.105,3.422,4.233,5.287,6.205c1.642,1.736,3.368,3.442,5.279,4.862c5.296,3.937,11.58,3.896,16.951,0.057    c3.152-2.253,5.699-5.131,8.135-8.104c4.514-5.51,3.193-4.92,10.45-4.85c11.352,0.111,22.701,0.512,34.053,0.724    c2.159,0.041,4.06,0.704,5.932,1.662c4.126,2.114,8.259,4.216,12.414,6.272c4.734,2.343,9.628,4.255,14.717,5.739    c8.371,2.441,16.507,1.693,24.361-1.716c3.785-1.643,7.388-3.811,10.827-6.11c2.169-1.45,4.229-2.051,6.735-1.556    c3.291,0.65,6.631,1.073,9.894,1.836c4.979,1.164,9.914,2.513,14.854,3.833c1.213,0.324,2.374,0.84,3.741,1.334    c0,1.363,0.244,2.659-0.041,3.824c-1.408,5.742-2.996,11.439-4.426,17.177c-0.335,1.345-1.005,2.311-2.095,3.066    c-3.021,2.096-5.941,4.359-9.083,6.256c-9.442,5.703-18.935,11.325-28.479,16.855c-5.255,3.044-10.702,5.755-15.978,8.767    c-11.27,6.434-23.498,9.045-36.324,9.21c-12.027,0.155-22.988-3.42-33.051-9.903c-4.994-3.217-9.582-6.945-13.776-11.146    c-4.407-4.414-8.741-8.899-13.145-13.315c-1.472-1.476-3.075-2.661-5.278-3.085c-4.226-0.815-7.927-0.161-11.019,2.993    c-3.919,3.996-7.847,7.983-11.768,11.977c-4.496,4.579-9.33,8.757-14.727,12.249c-6.496,4.204-13.412,7.493-21.055,8.949    c-3.443,0.656-6.966,1.2-10.458,1.236c-12.806,0.133-25.151-2.004-36.547-8.24c-13.745-7.521-27.633-14.791-40.905-23.143    c-4.599-2.895-9.06-6.008-13.598-9c-1.673-1.103-2.731-2.538-3.216-4.539c-1.242-5.125-2.661-10.208-3.935-15.325    C1311.177,1385.08,1310.833,1383.491,1311.387,1381.969z"/>
	</g>
</g>
<g>
	<g>
		<path fill="#141414" d="M1315.595,1401.326c-1.97-5.528-3.069-10.837-4.268-16.113c-0.236-1.037-0.034-2.174-0.034-3.394    c1.175-0.456,2.17-0.96,3.225-1.232c6.344-1.638,12.686-3.284,19.061-4.794c2.481-0.587,5.04-0.853,7.571-1.216    c1.647-0.236,3.109,0.17,4.508,1.166c2.082,1.481,4.245,2.858,6.449,4.152c5.318,3.122,11.089,4.869,17.209,5.571    c3.894,0.447,7.662-0.217,11.4-1.101c5.472-1.294,10.638-3.45,15.661-5.945c4.009-1.991,8.001-4.016,11.976-6.075    c2.305-1.194,4.656-1.891,7.316-1.927c11.513-0.157,23.023-0.467,34.535-0.713c0.959-0.021,1.919,0.034,2.879,0.033    c1.541-0.002,2.75,0.599,3.734,1.805c1.719,2.105,3.424,4.232,5.288,6.205c1.641,1.736,3.366,3.443,5.276,4.865    c5.294,3.942,11.583,3.91,16.952,0.078c3.154-2.251,5.701-5.128,8.138-8.102c4.519-5.515,3.196-4.934,10.444-4.862    c11.353,0.111,22.702,0.512,34.055,0.724c2.159,0.04,4.061,0.697,5.933,1.656c4.127,2.113,8.26,4.216,12.415,6.272    c4.735,2.344,9.628,4.256,14.717,5.741c8.37,2.442,16.508,1.701,24.363-1.708c3.785-1.643,7.389-3.81,10.828-6.109    c2.168-1.449,4.228-2.057,6.734-1.563c3.291,0.647,6.632,1.071,9.895,1.834c4.979,1.164,9.914,2.514,14.855,3.833    c1.213,0.324,2.375,0.84,3.591,1.278c1.015,3.633-0.729,6.713-1.42,9.916c-0.668,3.104-1.563,6.158-2.306,9.033    c-1.823,1.08-3.433,0.5-4.972,0.342c-6.043-0.622-12.069-1.418-18.114-2.01c-9.071-0.888-18.143-1.818-27.233-2.446    c-24.898-1.718-49.832-2.753-74.789-2.881c-26.072-0.134-52.147-0.165-78.218,0.086c-22.713,0.218-45.419,1.09-68.068,2.849    c-14.821,1.151-29.596,2.887-44.393,4.351C1319.207,1401.082,1317.621,1401.171,1315.595,1401.326z"/>
	</g>
</g>
<g>
	<g>
		<path fill="#363636" d="M1473.384,1201.195c12.858,0.228,22.839,1.537,32.778,3.226c0.94,0.16,1.862,0.459,2.774,0.75    c13.121,4.192,25.856,9.304,38.037,15.777c11.869,6.307,22.237,14.56,30.977,24.684c14.767,17.107,26.365,36.121,33.319,57.78    c2.806,8.74,4.448,17.642,4.364,26.857c-0.062,6.713-0.13,13.436,0.912,20.108c0.196,1.254,0.228,2.559,0.143,3.827    c-0.191,2.853-2.823,4.196-5.102,2.599c-1.173-0.823-2.216-1.834-3.292-2.79c-11.015-9.783-22.404-19.084-34.922-26.911    c-4.064-2.542-8.188-5.004-12.402-7.288c-15.612-8.46-32.365-13.506-49.77-16.731c-15.519-2.875-31.165-3.399-46.834-2.699    c-16.016,0.716-31.684,3.646-47.076,8.366c-22.585,6.925-42.069,19.193-60.288,33.782c-4.866,3.896-9.504,8.078-14.254,12.12    c-0.973,0.828-1.916,1.716-2.985,2.401c-1.688,1.082-4.089,0.056-4.508-1.948c-0.225-1.074-0.245-2.238-0.11-3.331    c1.062-8.594,1.04-17.229,1.131-25.866c0.082-7.741,1.841-15.219,4.208-22.547c7.038-21.792,18.725-40.95,33.657-58.135    c10.634-12.238,23.661-21.413,38.367-28.23c9.584-4.444,19.346-8.462,29.453-11.509c4.405-1.328,9.051-1.985,13.637-2.556    C1462.414,1202.084,1469.271,1201.584,1473.384,1201.195z M1448.925,1283.817c0.643-1.737,1.169-3.055,1.62-4.397    c1.63-4.846,3.232-9.702,4.851-14.552c0.354-1.061,0.654-2.15,1.117-3.163c0.82-1.796,2.761-2.32,4.414-1.198    c0.789,0.535,1.475,1.225,2.191,1.863c3.104,2.766,6.19,5.551,9.306,8.303c1.064,0.94,2.195,1.806,3.439,2.823    c1.221-0.986,2.355-1.838,3.416-2.771c3.361-2.958,6.666-5.98,10.046-8.915c3.451-2.995,5.059-2.597,6.522,1.64    c1.929,5.588,3.746,11.214,5.652,16.81c0.398,1.168,0.977,2.274,1.417,3.282c6.566,0.131,23.766-1.27,27.196-2.239    c-0.773-5.155-1.555-10.35-2.335-15.545c-0.782-5.216-1.485-10.446-2.37-15.644c-0.874-5.134-1.147-10.391-2.709-15.556    c-9.047,0.266-17.82,0.534-26.596,0.771c-1.419,0.039-2.343,0.876-3.3,1.736c-4.164,3.739-8.333,7.473-12.506,11.201    c-0.833,0.745-1.652,1.517-2.557,2.166c-1.145,0.821-2.421,0.871-3.591,0.067c-0.917-0.63-1.747-1.392-2.58-2.136    c-4.055-3.621-8.166-7.185-12.115-10.918c-1.63-1.542-3.366-2.183-5.558-2.231c-7.833-0.171-15.663-0.46-23.495-0.676    c-0.446-0.012-0.899,0.23-1.392,0.366c-0.185,0.466-0.444,0.881-0.513,1.325c-2.217,14.374-4.422,28.75-6.597,43.13    c-0.11,0.727,0.06,1.496,0.114,2.542C1430.998,1282.539,1439.734,1283.162,1448.925,1283.817z"/>
		<path fill="#363636" d="M1577.938,1337.867c0.471-0.063,0.951-0.085,1.411-0.194c2.19-0.52,4.007,0.045,5.753,1.501    c5.034,4.198,10.205,8.233,15.241,12.43c3.192,2.659,6.283,5.445,9.34,8.262c1.999,1.843,2.166,4.132,0.274,5.811    c-8.578,7.612-18.083,13.137-30.038,13.096c-5.366-0.019-10.48-1.17-15.411-3.125c-3.562-1.412-7.044-3.038-10.498-4.701    c-7.345-3.536-14.598-7.264-21.98-10.718c-9.863-4.613-20-8.564-30.668-10.887c-22.261-4.848-44.135-3.449-65.608,4.299    c-9.646,3.481-18.885,7.849-28.072,12.351c-5.311,2.603-10.577,5.3-15.936,7.799c-4.792,2.234-9.755,3.996-15.06,4.643    c-7.151,0.871-14.022,0.01-20.563-3.113c-5.081-2.427-9.8-5.409-13.928-9.255c-2.506-2.334-2.538-4.111,0.111-6.385    c7.644-6.559,15.458-12.92,23.038-19.551c3.031-2.652,5.972-3.417,9.496-1.338l-0.209-0.158c0.563,1.657,2.081,2.325,3.367,3.216    c5.353,3.706,11.13,4.813,17.291,2.429c3.569-1.382,7.094-2.934,10.487-4.7c5.388-2.803,10.592-5.959,15.976-8.77    c13.961-7.288,28.32-13.205,44.297-14.699c12.13-1.135,23.972-0.172,35.64,2.929c10.239,2.721,19.83,7.164,29.138,12.188    c5.205,2.81,10.339,5.75,15.528,8.586c4.08,2.229,8.276,4.245,12.846,5.226c7.25,1.557,13.125-1.038,17.997-6.347    c0.098-0.106,0.101-0.3,0.147-0.453C1577.535,1338.102,1577.732,1337.979,1577.938,1337.867z"/>
		<path fill="#363636" d="M1577.938,1337.867c-0.205,0.111-0.402,0.234-0.593,0.369c-0.423,0.226-0.887,0.396-1.263,0.683    c-7.082,5.381-14.797,5.322-22.738,2.495c-2.693-0.958-5.285-2.258-7.817-3.603c-5.92-3.145-11.735-6.487-17.665-9.613    c-8.489-4.476-17.252-8.359-26.49-11.003c-3.97-1.136-8.065-2.093-12.164-2.462c-8.27-0.746-16.573-0.823-24.883-0.189    c-3.686,0.281-7.285,0.802-10.845,1.746c-10.241,2.715-19.909,6.869-29.267,11.76c-6.082,3.179-12.022,6.63-18.108,9.802    c-2.961,1.543-6.025,2.982-9.191,4.017c-7.173,2.343-14.154,2.119-20.565-2.459c-0.501-0.358-1.142-0.522-1.718-0.776l0.209,0.158    c-0.392-0.685-0.916-1.327-1.147-2.062c-0.41-1.301-0.233-2.537,0.988-3.417c0.648-0.467,1.292-0.942,1.95-1.396    c8.441-5.816,17.208-11.081,26.529-15.368c8.461-3.892,17.384-6.456,26.44-8.449c16.613-3.656,33.437-5.228,50.471-4.903    c15.415,0.293,30.571,2.265,45.583,5.696c19.043,4.353,35.878,13.272,51.6,24.564c0.256,0.184,0.452,0.45,0.988,0.997    C1578.157,1335.393,1578.048,1336.63,1577.938,1337.867z"/>
		<path fill="#363636" d="M1380.172,1232.504c0.155,1.868-1.065,2.583-1.941,3.433c-11.361,11.015-20.271,23.875-27.996,37.571    c-8.238,14.605-13.922,30.189-16.343,46.818c-0.872,5.992-0.901,12.106-1.332,18.164c-0.305,4.301-0.663,8.599-0.948,12.902    c-0.153,2.301-1.112,4.296-2.095,6.32c-1.986,4.09-6.684,4.584-9.875,2.817c-2.893-1.603-4.957-4.096-6.028-7.209    c-0.877-2.549-0.454-5.117,1.231-7.272c1.274-1.63,2.756-3.101,4.189-4.6c1.996-2.087,3.939-4.191,4.436-7.197    c-0.816-0.281-1.546-0.531-2.405-0.827c2.11-10.606,4.266-21.082,7.264-31.352c1.789-6.129,3.746-12.226,5.961-18.212    c3.874-10.465,9.817-19.716,17.236-28.033c7.049-7.903,14.745-15.096,23.369-21.268c1.039-0.743,2.07-1.537,3.214-2.076    C1378.674,1232.217,1379.488,1232.481,1380.172,1232.504z"/>
		<path fill="#363636" d="M1630.403,1333.343c-0.661,0.352-1.317,0.701-2.074,1.104c0.52,2.655,2.11,4.617,3.87,6.472    c1.319,1.39,2.771,2.667,3.984,4.141c3.111,3.781,3.227,7.411,0.293,11.354c-1.032,1.388-2.305,2.679-3.698,3.701    c-3.064,2.247-8.439,1.905-10.642-2.525c-1.767-3.553-2.312-7.275-2.556-11.102c-0.365-5.736-0.736-11.476-0.901-17.219    c-0.217-7.557-1.577-14.915-3.513-22.182c-4.697-17.631-12.631-33.736-23.028-48.677c-5.577-8.015-11.554-15.688-18.615-22.474    c-1.932-1.856-2.366-3.015-1.563-3.458c1.457-0.8,2.438,0.339,3.4,1.034c14.661,10.56,27.505,22.867,36.612,38.672    c4.327,7.509,7.29,15.604,9.781,23.882c3.546,11.784,6.202,23.78,8.637,35.831    C1630.481,1332.339,1630.403,1332.817,1630.403,1333.343z"/>
		<path fill="#363636" d="M1462.981,1195.685c0.768-2.556,2.41-2.985,3.763-3.542c4.012-1.653,8.144-2.788,12.538-1.741    c3.338,0.795,6.787,1.393,9.214,4.084c-0.527,1.5-1.62,1.122-2.478,1.096c-4.286-0.126-8.57-0.438-12.855-0.453    C1470.005,1195.117,1466.846,1195.459,1462.981,1195.685z"/>
	</g>
</g>
<g>
	<g>
		<path fill="#1E1E1E" d="M1513.333,1206.785c0.882,0.23,1.786,0.395,2.641,0.702c10.546,3.78,20.863,8.078,30.777,13.332    c11.877,6.294,22.279,14.512,31.034,24.624c14.795,17.085,26.419,36.087,33.407,57.742c2.87,8.895,4.54,17.948,4.444,27.328    c-0.066,6.554-0.144,13.119,0.892,19.632c0.2,1.255,0.157,2.551,0.194,3.83c0.048,1.637-0.804,2.717-2.235,3.359    c-1.172,0.525-2.17,0.005-3.111-0.664c-0.13-0.093-0.258-0.191-0.378-0.295c-5.682-4.912-11.363-9.824-17.218-14.886    c0.854-4.838-1.693-8.538-4.621-11.987c-1.959-2.308-4.144-4.445-6.38-6.492c-5.559-5.09-11.722-9.401-17.921-13.663    c-1.938-1.332-4.048-2.503-5.488-4.415c0.614-1.145,1.518-0.825,2.13-0.623c3.181,1.053,6.378,2.09,9.464,3.384    c4.422,1.854,8.727,3.983,13.133,5.876c1.899,0.815,3.885,1.553,5.904,1.938c3.73,0.712,5.91-1.251,5.571-5.075    c-0.18-2.035-0.698-4.128-1.506-6.004c-2.713-6.31-5.211-12.767-8.557-18.738c-5.312-9.478-10.942-18.807-16.967-27.847    c-13.261-19.897-30.641-35.518-51.069-47.825c-1.47-0.885-2.916-1.81-4.374-2.716    C1513.178,1207.129,1513.255,1206.957,1513.333,1206.785z"/>
		<path fill="#1E1E1E" d="M1437.606,1206.708c-0.055,0.442,0.052,1.113-0.193,1.288c-1.3,0.924-2.685,1.73-4.048,2.564    c-20.772,12.706-38.27,28.869-51.568,49.347c-5.223,8.042-10.07,16.332-14.958,24.586c-3.757,6.344-6.64,13.123-9.204,20.023    c-0.716,1.927-1.269,3.991-1.438,6.029c-0.315,3.795,1.914,5.725,5.691,4.939c2.17-0.451,4.29-1.279,6.337-2.159    c4.259-1.829,8.429-3.867,12.688-5.697c2.638-1.133,5.352-2.103,8.076-3.015c1.01-0.338,2.146-0.3,3.958-0.524    c-1.059,1.201-1.55,1.994-2.247,2.508c-2.572,1.899-5.28,3.62-7.813,5.567c-5.069,3.896-10.129,7.81-15.053,11.886    c-3.086,2.554-5.732,5.576-7.847,9.016c-1.534,2.496-2.765,5.074-1.881,8.187c-0.618,0.633-1.128,1.24-1.722,1.75    c-4.61,3.96-9.234,7.905-13.86,11.848c-0.851,0.725-1.673,1.505-2.606,2.109c-1.9,1.231-4.384,0.124-4.743-2.144    c-0.172-1.089-0.147-2.245-0.004-3.343c1.077-8.275,1.038-16.592,1.085-24.912c0.044-7.75,1.697-15.242,4.032-22.581    c7.046-22.145,18.875-41.589,34.069-58.991c10.774-12.34,23.992-21.517,38.887-28.328c8.003-3.66,16.161-6.912,24.446-9.859    L1437.606,1206.708z"/>
		<path fill="#1E1E1E" d="M1322.032,1335.503c-1.891-1.185-1.856-2.66-1.464-4.35c1.952-8.407,3.714-16.859,5.808-25.23    c1.434-5.73,3.172-11.394,5-17.013c4.316-13.272,11.235-25.038,20.727-35.3c6.975-7.541,14.488-14.46,22.896-20.379    c1.292-0.909,2.496-2.001,4.27-1.95c1.288,0.037,2.209,0.943,1.817,2.178c-0.276,0.873-0.75,1.76-1.365,2.432    c-1.618,1.769-3.45,3.345-5.042,5.136c-17.685,19.896-30.965,42.222-37.711,68.187c-2.472,9.515-3.276,19.198-3.604,28.969    c-0.15,4.47-0.602,8.93-0.899,13.396c-0.186,2.791-1.242,5.27-2.677,7.615c-1.077,1.759-2.641,2.655-4.712,2.873    c-7.167,0.751-13.17-5.023-12.631-12.183c0.15-1.991,0.848-3.753,2.113-5.249c1.134-1.34,2.396-2.573,3.633-3.823    C1319.652,1339.333,1321.074,1337.834,1322.032,1335.503z"/>
		<path fill="#1E1E1E" d="M1571.058,1231.648c2.203-0.852,3.661,0.137,5.124,1.164c5.771,4.049,11.204,8.509,16.26,13.418    c2.294,2.227,4.515,4.531,6.721,6.844c11.4,11.955,18.618,26.221,23.271,41.937c3.405,11.503,6.047,23.187,8.476,34.922    c0.367,1.772,1.229,3.758-0.782,5.32c-0.225,0.175-0.007,1.292,0.323,1.738c1.039,1.407,2.204,2.726,3.369,4.035    c1.168,1.312,2.562,2.453,3.562,3.877c2.526,3.596,2.723,7.435,0.515,11.265c-2.746,4.766-6.402,6.542-11.545,5.857    c-1.882-0.25-3.431-1.062-4.267-2.721c-0.995-1.977-2.034-4.027-2.477-6.165c-0.612-2.956-0.778-6.017-0.968-9.043    c-0.39-6.222-0.56-12.458-1.019-18.674c-0.688-9.307-3.039-18.272-6.098-27.048c-8.073-23.168-20.946-43.361-37.991-60.945    c-0.667-0.688-1.351-1.362-2.016-2.053C1570.511,1234.333,1570.43,1233.143,1571.058,1231.648z"/>
		<path fill="#1E1E1E" d="M1412.244,1363.107c-8.334,4.582-16.353,9.208-24.983,12.572c-7.282,2.839-14.769,3.916-22.522,2.433    c-1.093-0.209-2.192-0.429-3.254-0.757c-7.292-2.253-13.616-6.197-19.252-11.264c-2.536-2.279-2.522-4.105,0.017-6.376    c5.103-4.566,10.085-9.279,15.766-13.504C1374.17,1357.863,1392.051,1363.942,1412.244,1363.107z"/>
		<path fill="#1E1E1E" d="M1593.714,1346.492c0.229,0.072,0.597,0.086,0.815,0.274c5.092,4.373,10.208,8.719,15.227,13.175    c2.023,1.796,2.095,4.07,0.127,5.808c-8.857,7.824-18.678,13.414-31.017,13.015c-5.019-0.163-9.828-1.271-14.438-3.152    c-3.842-1.567-7.598-3.354-11.345-5.142c-4.039-1.926-8.022-3.966-12.03-5.954c-0.681-0.337-1.335-0.7-2.418-1.647    c5.476-0.203,10.218-0.237,14.935-0.591c4.95-0.372,9.841-1.309,14.506-3.044c4.487-1.668,9.007-3.333,13.281-5.462    C1585.61,1351.653,1589.578,1348.959,1593.714,1346.492z"/>
		<path fill="#1E1E1E" d="M1453.547,1288.448c-1.096,0.108-1.572,0.216-2.042,0.192c-7.666-0.38-15.33-0.781-22.994-1.167    c-2.602-0.131-4.968-0.742-6.865-3.23c2.022-0.78,3.906-0.392,5.724-0.459c1.757-0.065,3.518-0.015,5.277-0.015    c1.919,0,3.838,0,5.757,0c1.759,0,3.518,0,5.277,0c1.902,0,3.803,0,5.775,0c2.208-4.203,2.984-8.63,4.371-12.835    c1.343-4.071,2.562-8.183,3.93-12.58c2.692,1.125,4.274,3.188,6.193,4.767c1.975,1.625,3.856,3.362,5.779,5.051    c1.915,1.683,3.83,3.364,5.962,5.238c6.267-4.647,11.518-10.231,17.803-15.095c0.485,0.927,1.019,1.662,1.276,2.483    c1.915,6.097,3.768,12.213,5.656,18.319c0.422,1.365,0.905,2.712,1.443,4.316c1.259,0.113,2.493,0.315,3.729,0.321    c6.876,0.032,13.752,0.005,20.629,0.028c1.227,0.004,2.453,0.148,4.313,0.269c-1.846,1.998-3.523,3.018-5.64,3.251    c-1.588,0.175-3.188,0.26-4.783,0.345c-5.748,0.306-11.496,0.609-17.245,0.881c-1.415,0.067-2.836,0.01-4.409,0.01    c-2.63-6.098-3.589-12.63-6.157-18.851c-5.807,2.717-10.741,6.591-16.549,9.543c-5.224-3.15-10.538-6.354-16.033-9.668    c-1.865,3.152-2.284,6.51-3.333,9.632C1455.377,1282.206,1454.517,1285.268,1453.547,1288.448z"/>
		<path fill="#1E1E1E" d="M1470.289,1191.192c3.98-1.553,7.31-1.518,11.146-0.031    C1477.623,1192.986,1474.271,1192.96,1470.289,1191.192z"/>
		<path fill="#1E1E1E" d="M1468.072,1194.175c-0.939,0.629-1.287,1-1.704,1.114c-1.027,0.282-2.133,0.78-3.005-0.347    c-0.075-0.097-0.065-0.324-0.007-0.45c0.629-1.357,1.806-0.903,2.847-0.812C1466.659,1193.72,1467.102,1193.911,1468.072,1194.175    z"/>
		<path fill="#1E1E1E" d="M1483.932,1194.167c1.558-0.556,2.805-0.972,4.122-0.204c0.208,0.122,0.384,0.505,0.366,0.752    c-0.018,0.25-0.254,0.637-0.467,0.695C1486.512,1195.802,1485.239,1195.52,1483.932,1194.167z"/>
		<path fill="#1E1E1E" d="M1437.689,1206.803c0.356,0.027,0.712,0.054,1.067,0.081c-0.108,0.073-0.24,0.227-0.32,0.204    c-0.275-0.08-0.533-0.221-0.814-0.359C1437.606,1206.708,1437.689,1206.803,1437.689,1206.803z"/>
	</g>
</g>
<g>
	<g>
		<path fill="#FFFFFF" d="M1399.89,1449.464c-7.106-2.168-13.79-4.197-20.231-6.507c-0.732-1.608,0.209-2.663,0.722-3.777    c4.68-10.155,9.393-20.295,14.079-30.448c0.645-1.397,1.193-2.838,2.011-4.797c-7.007,1.001-13.025,3.651-19.901,4.753    c0.361-1.092,0.496-1.815,0.823-2.438c5.123-9.761,10.297-19.494,15.385-29.273c0.862-1.656,1.98-2.859,3.71-3.509    c0.15-0.056,0.302-0.11,0.441-0.186c6.957-3.775,14.14-6.475,22.303-6.138c4.285,0.177,8.604-0.522,12.911-0.784    c0.905-0.056,1.821,0.071,3.098,0.13c-0.765,2.689-2.592,4.315-3.883,6.236c-1.425,2.121-2.994,4.146-4.499,6.213    c-1.41,1.938-2.818,3.878-4.229,5.817c-1.504,2.068-3.042,4.112-4.506,6.208c-1.336,1.912-2.928,3.677-4.083,6.108    c2.377,0.789,4.433,0.425,6.437,0.483c1.917,0.056,3.837-0.028,5.754,0.023c2.021,0.054,4.084-0.281,6.007,0.281    c0.071,0.563,0.251,0.956,0.125,1.152C1421.662,1415.669,1410.938,1432.313,1399.89,1449.464z"/>
		<path fill="#FFFFFF" d="M1556.634,1373.474c7.109,3.055,13.854,6.342,21.781,7.086c-1.466,3.191-3.337,5.175-4.862,7.377    c-1.638,2.366-3.401,4.645-5.056,7c-1.529,2.177-3.33,4.188-4.727,6.918c2.356,0.81,4.409,0.441,6.404,0.5    c1.918,0.057,3.839-0.026,5.758,0.022c2.029,0.052,4.095-0.265,6.405,0.37c-0.239,0.772-0.297,1.406-0.604,1.879    c-10.425,16.108-20.873,32.203-31.328,48.293c-0.166,0.255-0.458,0.429-0.98,0.903c-3.385-0.222-6.721-1.793-10.184-2.816    c-3.355-0.992-6.666-2.139-9.779-3.146c-0.774-1.716,0.166-2.771,0.68-3.886c4.684-10.162,9.407-20.306,14.081-30.472    c0.641-1.392,1.584-2.714,1.616-4.732c-6.633,1.011-12.667,3.607-19.543,4.727c0.39-1.127,0.542-1.854,0.874-2.485    c5.126-9.767,10.294-19.513,15.401-29.29c0.774-1.482,1.743-2.596,3.3-3.287    C1549.376,1376.883,1552.837,1375.232,1556.634,1373.474z"/>
	</g>
</g>
<g>
	<g>
		<path fill="#141414" d="M1400.326,1762.7c-1.33,1.187-2.52,2.237-3.698,3.301c-11.329,10.222-23.557,19.192-37.01,26.43    c-8.333,4.483-16.96,8.282-26.243,10.356c-4.54,1.014-9.142,1.713-13.788,0.706c-1.548-0.336-3.131-0.75-4.541-1.445    c-4.971-2.452-7.263-7.335-6.151-12.79c0.75-3.679,2.415-6.947,4.699-9.88c1.664-2.138,3.499-4.142,5.424-6.402    c-0.53-0.543-1.061-1.07-1.574-1.615c-2.714-2.883-3.447-6.624-1.572-10.127c1.036-1.936,2.499-3.721,4.062-5.28    c3.2-3.193,7.077-5.459,11.162-7.359c8.333-3.878,17.121-6.177,26.181-7.526c0.627-0.093,1.254-0.192,1.827-0.281    c0.664-1.375-0.483-1.771-1.138-2.309c-8.058-6.612-15.544-13.818-22.406-21.659c-18.035-20.608-29.361-44.441-33.9-71.433    c-3.012-17.91-3.354-35.962-2.2-54.059c1.72-26.981,7.451-53.134,15.998-78.74c2.882-8.636,5.289-17.434,7.815-26.185    c3.531-12.229,3.732-24.619,1.315-37.052c-2.135-10.983-4.484-21.925-6.695-32.894c-0.373-1.851-1.143-3.288-2.94-4.072    c-0.582-0.254-1.071-0.735-1.661-0.954c-3.496-1.295-4.991-4.017-5.987-7.446c-2.286-7.874-3.511-15.912-4.355-24.031    c-0.064-0.614,0.076-1.249,0.124-1.92c2.407-2.364,5.794-2.71,8.689-4.417c0.4-3.783-0.317-7.569-0.452-11.362    c-0.024-0.67-0.756-1.343-1.229-1.963c-0.967-1.268-2.128-2.412-2.948-3.764c-3.12-5.144-2.137-9.87,2.697-13.423    c0.9-0.661,1.86-1.241,2.877-1.914c2.89-13.38,5.787-26.792,8.745-40.483c-0.576-0.504-1.221-1.198-1.986-1.718    c-7.352-4.991-11.834-11.971-14.274-20.397c-3.477-12.002-2.526-23.475,4.475-34.032c6.468-9.754,15.546-16.052,26.959-18.618    c8.658-1.946,16.844-0.251,24.356,4.509c1.21,0.767,2.362,1.625,3.611,2.489c0.715-0.476,1.404-0.871,2.023-1.356    c18.3-14.342,38.908-23.857,61.45-29.273c6.681-1.605,13.402-3.059,20.141-4.396c2.037-0.404,3.379-1.287,4.652-2.919    c10.455-13.408,29.217-15.294,42.135-4.286c1.328,1.132,2.683,2.385,3.561,3.858c1.388,2.329,3.396,3.052,5.874,3.531    c6.117,1.183,12.213,2.506,18.275,3.948c23.029,5.476,44.123,15.061,62.763,29.802c0.492,0.389,1.071,0.668,1.729,1.072    c0.942-0.649,1.838-1.279,2.745-1.892c8.462-5.71,17.757-7.531,27.451-4.496c15.961,4.997,27.021,15.307,30.354,32.104    c2.483,12.517-0.539,24.209-8.692,34.202c-2.392,2.931-5.583,5.209-8.775,8.123c1.414,6.234,2.983,12.894,4.426,19.58    c1.449,6.717,2.771,13.462,4.199,20.446c1.161,0.818,2.5,1.667,3.732,2.646c3.844,3.056,4.882,7.135,2.697,11.527    c-0.909,1.827-2.313,3.425-3.606,5.036c-0.717,0.893-1.37,1.717-1.429,2.929c-0.164,3.346-0.385,6.688-0.597,10.282    c2.949,1.368,5.802,2.689,8.663,4.016c0.154,0.777,0.419,1.399,0.377,2c-0.613,8.804-2.111,17.443-4.705,25.896    c-0.745,2.426-1.751,4.461-4.297,5.356c-4.266,1.497-5.813,4.701-6.566,9.01c-1.761,10.074-3.967,20.071-6.042,30.089    c-2.618,12.634-2.029,25.142,1.577,37.487c3.094,10.584,6.227,21.162,9.622,31.651c6.079,18.777,10.222,37.971,12.664,57.527    c2.227,17.833,2.429,35.733,1.063,53.652c-2.219,29.125-11.75,55.54-29.414,78.886c-7.851,10.377-17.055,19.49-26.947,27.92    c-1.088,0.927-2.12,1.918-3.161,2.896c-0.087,0.081-0.051,0.292-0.079,0.5c0.384,0.921,1.303,0.647,2.01,0.754    c8.255,1.248,16.291,3.274,23.992,6.556c4.141,1.764,8.125,3.82,11.549,6.759c1.805,1.548,3.563,3.259,4.928,5.189    c3.145,4.446,2.606,8.423-1.328,12.377c-0.22,0.22-0.377,0.501-0.59,0.791c-0.13,1.318,1.105,1.775,1.747,2.61    c1.749,2.28,3.701,4.43,5.214,6.855c1.164,1.866,2.02,4.008,2.601,6.141c2.139,7.85-2.529,13.482-9.455,15.033    c-4.962,1.112-9.877,0.517-14.741-0.572c-8.804-1.971-17.015-5.513-24.967-9.691c-13.96-7.337-26.581-16.572-38.291-27.092    c-1.068-0.96-2.146-1.909-3.227-2.854c-0.115-0.101-0.288-0.136-0.705-0.324c-0.842,0.205-1.936,0.392-2.977,0.738    c-15.303,5.108-31.069,7.479-47.149,7.773c-7.191,0.132-14.392-0.188-21.587-0.277c-2.558-0.031-5.124-0.102-7.674,0.045    c-11.683,0.676-23.361,0.507-35.001-0.561c-10.853-0.995-21.5-3.182-31.891-6.536    C1403.416,1763.527,1401.887,1763.144,1400.326,1762.7z M1327.991,1420.621c0.465,2.699,0.688,4.26,1.007,5.801    c1.33,6.415,2.667,12.829,4.042,19.234c3.107,14.49,2.999,28.907-1.143,43.184c-3.071,10.587-6.128,21.186-9.55,31.663    c-6.98,21.371-11.499,43.241-13.584,65.596c-1.563,16.762-1.324,33.542,0.528,50.288c1.505,13.603,4.999,26.656,10.381,39.247    c8.397,19.646,21.238,35.971,36.967,50.199c9.896,8.952,20.612,16.682,32.665,22.52c19.718,9.55,40.63,14.327,62.383,15.639    c14.051,0.847,28.115,0.966,42.197,0.325c11.534-0.524,22.948-1.73,34.228-4.179c25.383-5.511,47.971-16.512,67.009-34.365    c4.546-4.263,9.003-8.647,13.188-13.26c19.297-21.267,30.514-46.338,34.013-74.736c2.394-19.427,2.25-38.96-0.02-58.408    c-2.319-19.889-6.525-39.391-12.771-58.454c-3.432-10.475-6.55-21.057-9.575-31.657c-2.692-9.438-4.047-19.106-3.184-28.933    c0.475-5.401,1.306-10.788,2.278-16.126c1.176-6.443,2.686-12.825,4.018-19.24c0.239-1.15,0.681-2.366-0.197-3.792    c-1.688,1.02-3.184,1.894-4.65,2.815c-11.372,7.142-22.634,14.463-34.422,20.928c-7.35,4.031-15.068,6.971-23.303,8.563    c-8.86,1.714-17.777,2.214-26.719,0.9c-11.644-1.71-21.967-6.604-31.398-13.507c-5.961-4.362-11.239-9.478-16.313-14.822    c-2.532-2.667-5.111-5.292-7.731-7.872c-0.747-0.735-1.711-1.25-2.734-1.977c-3.329,2.924-6.207,5.904-9.048,8.922    c-4.938,5.246-10.062,10.285-15.772,14.709c-17.797,13.786-37.733,18.054-59.692,13.614c-8.062-1.63-15.651-4.447-22.862-8.387    c-11.938-6.523-23.333-13.934-34.837-21.167C1331.931,1422.968,1330.442,1422.101,1327.991,1420.621z M1337.754,1354.583    c2.147-0.391,3.067-1.803,4.26-2.777c7.302-5.97,14.367-12.253,21.916-17.89c15.706-11.728,32.546-21.331,51.426-27.262    c16.759-5.265,33.855-8.165,51.331-8.87c14.561-0.587,29.08,0.088,43.495,2.546c16.318,2.783,32.093,7.284,46.983,14.586    c14.861,7.288,28.427,16.589,41.157,27.123c4.435,3.669,8.73,7.505,13.11,11.24c0.665,0.567,1.228,1.515,2.617,0.928    c0.061-0.486,0.263-1.093,0.189-1.665c-0.915-7.154-1.188-14.345-1.105-21.542c0.111-9.709-1.702-19.049-4.786-28.219    c-7.144-21.24-18.726-39.877-33.417-56.616c-8.076-9.201-17.675-16.636-28.454-22.512c-9.992-5.446-20.468-9.764-31.151-13.637    c-5.733-2.078-11.556-3.708-17.617-4.443c-2.698-0.327-5.388-0.749-8.095-0.964c-5.097-0.405-10.219-1.117-15.301-0.923    c-6.855,0.261-13.695,1.151-20.516,1.982c-3.477,0.424-7,0.989-10.327,2.042c-12.357,3.91-24.368,8.701-35.884,14.707    c-14.412,7.517-26.518,17.763-36.538,30.509c-7.131,9.072-13.436,18.703-18.769,28.933c-5.788,11.103-10.334,22.697-12.492,35.089    c-0.71,4.079-1.075,8.249-1.22,12.39c-0.275,7.824,0.133,15.674-1.112,23.455    C1337.386,1353.229,1337.599,1353.708,1337.754,1354.583z M1639.788,1382.437c-1.462-0.526-2.479-0.977-3.54-1.259    c-4.787-1.269-9.572-2.547-14.386-3.707c-2.949-0.71-5.962-1.152-8.92-1.828c-2.662-0.607-4.966-0.24-7.147,1.562    c-1.589,1.312-3.44,2.328-5.245,3.352c-11.053,6.27-22.63,7.521-34.636,3.242c-4.354-1.551-8.588-3.469-12.788-5.413    c-3.913-1.811-7.718-3.859-11.549-5.843c-1.595-0.826-3.242-1.234-5.049-1.273c-11.348-0.242-22.694-0.549-34.042-0.8    c-1.747-0.039-3.497,0.1-5.313,0.159c-1.507,1.794-2.867,3.572-4.395,5.193c-2.297,2.438-4.634,4.85-7.101,7.112    c-1.786,1.637-3.977,2.585-6.421,3.016c-5.375,0.947-10.236-0.06-14.231-3.858c-2.656-2.525-5.204-5.209-7.478-8.079    c-1.932-2.437-3.962-3.735-7.241-3.612c-11.821,0.441-23.651,0.638-35.479,0.884c-1.826,0.038-3.421,0.64-5,1.453    c-3.837,1.976-7.629,4.053-11.557,5.831c-4.505,2.039-9.063,4.01-13.73,5.633c-8.096,2.817-16.333,2.788-24.512,0.256    c-4.922-1.523-9.528-3.828-13.604-6.952c-2.521-1.932-4.979-2.537-8.009-1.78c-8.055,2.01-16.141,3.898-24.205,5.873    c-0.737,0.18-1.409,0.627-2.328,1.05c0.229,1.538,0.323,2.954,0.663,4.308c1.165,4.648,2.514,9.253,3.59,13.921    c0.505,2.19,1.597,3.762,3.413,4.963c4.266,2.821,8.462,5.752,12.785,8.481c13.797,8.711,28.229,16.309,42.572,24.057    c9.173,4.956,19.152,7.026,29.464,7.664c14.164,0.877,26.779-3.482,38.255-11.534c5.783-4.058,10.894-8.885,15.768-13.979    c2.874-3.003,5.739-6.021,8.751-8.883c4.631-4.4,12.784-4.438,17.392-0.078c3.017,2.856,5.886,5.872,8.757,8.876    c4.872,5.096,9.968,9.939,15.749,14.001c9.895,6.955,20.741,11.4,32.962,11.64c12.84,0.252,25.099-2.284,36.458-8.532    c5.601-3.081,11.289-6.009,16.832-9.191c9.008-5.173,17.968-10.434,26.868-15.79c3.555-2.14,6.89-4.645,10.344-6.955    c1.528-1.022,2.496-2.343,2.947-4.171c1.3-5.274,2.735-10.514,4.061-15.781C1639.74,1384.77,1639.682,1383.797,1639.788,1382.437z     M1341.839,1362.982c6.414,6.032,13.149,10.532,21.089,12.945c2.713,0.824,5.65,1.039,8.505,1.24    c4.553,0.321,8.934-0.81,13.091-2.502c5.026-2.046,9.928-4.405,14.854-6.693c9.42-4.377,18.723-9.021,28.252-13.146    c10.454-4.525,21.376-7.573,32.744-8.887c7.654-0.885,15.326-0.667,23.001-0.577c4.977,0.059,9.875,0.751,14.761,1.614    c12.058,2.13,23.436,6.341,34.492,11.444c7.4,3.415,14.668,7.118,21.989,10.704c5.026,2.462,10.073,4.856,15.441,6.525    c4.821,1.499,9.734,2.091,14.687,1.219c9.782-1.723,17.681-6.944,24.934-13.723c-1.566-2.374-3.732-3.79-5.571-5.512    c-1.751-1.639-3.575-3.2-5.396-4.762c-1.942-1.666-3.907-3.307-5.885-4.931c-1.854-1.522-3.71-3.044-5.616-4.5    c-2.001-1.531-3.843-3.313-6.197-4.427c-1.811,1.367-3.422,2.668-5.118,3.85c-5.38,3.747-11.217,5.173-17.737,3.676    c-4.734-1.087-9.078-3.064-13.308-5.332c-5.213-2.795-10.356-5.721-15.538-8.575c-7.016-3.863-14.347-7.023-21.812-9.909    c-10.13-3.917-20.763-5.066-31.458-5.911c-0.945-0.075-1.913,0.111-2.867,0.201c-2.229,0.211-4.472,0.33-6.679,0.681    c-4.571,0.725-9.193,1.298-13.668,2.431c-10.598,2.684-20.487,7.204-30.09,12.354c-4.79,2.568-9.441,5.403-14.281,7.869    c-3.977,2.025-8.054,3.917-12.241,5.449c-6.161,2.253-12.286,1.804-18.043-1.489c-1.794-1.026-3.397-2.381-5.105-3.562    c-0.879-0.607-1.795-1.16-2.725-1.756C1360.43,1346.43,1351.133,1354.201,1341.839,1362.982z M1576.603,1335.599    c-1.166-0.897-1.896-1.51-2.676-2.051c-7.233-5.019-14.68-9.709-22.612-13.531c-4.595-2.213-9.341-4.169-14.148-5.873    c-11.344-4.02-23.116-6.254-35.011-7.904c-9.048-1.254-18.167-1.678-27.269-1.647c-12.32,0.042-24.585,1.17-36.717,3.456    c-11.811,2.225-23.383,5.282-34.345,10.306c-9.329,4.276-18.022,9.667-26.441,15.507c-0.731,0.507-1.756,0.879-1.593,2.353    c5.493,5.086,11.907,6.974,19.256,4.396c3.453-1.212,6.813-2.758,10.071-4.432c5.116-2.629,10.106-5.504,15.157-8.26    c7.732-4.219,15.77-7.755,24.063-10.717c7.739-2.764,15.667-4.44,23.93-4.349c5.595,0.061,11.192-0.012,16.787,0.035    c5.626,0.047,11.128,0.911,16.541,2.485c10.179,2.96,19.816,7.202,29.157,12.146c5.227,2.767,10.313,5.803,15.579,8.488    c3.544,1.808,7.206,3.472,10.971,4.745C1564.521,1343.193,1570.736,1341.089,1576.603,1335.599z M1322.968,1765.643    c0.93,0.292,1.858,0.911,2.641,0.763c1.856-0.352,3.726-0.887,5.438-1.677c2.607-1.203,5.065-2.727,7.624-4.04    c7.119-3.652,14.77-5.057,22.692-5.236c0.713-0.017,1.638-0.266,2.064,1.113c-0.908,0.45-1.813,0.982-2.779,1.363    c-3.566,1.407-7.18,2.699-10.727,4.151c-9.286,3.803-17.453,9.33-24.719,16.223c-2.565,2.433-4.998,5-6.556,8.2    c-0.752,1.545-1.209,3.275-1.539,4.973c-0.274,1.415,0.605,2.466,1.885,3.014c2.104,0.898,4.353,1.205,6.587,0.822    c3.457-0.593,6.939-1.182,10.302-2.149c6.471-1.862,12.569-4.68,18.514-7.833c12.642-6.707,24.074-15.139,34.932-24.396    c0.57-0.486,1.029-1.103,1.501-1.616c-0.368-0.489-0.495-0.824-0.732-0.95c-5.506-2.916-11.041-5.778-16.528-8.73    c-1.193-0.642-2.372-0.805-3.675-0.753c-11.923,0.469-23.492,2.603-34.535,7.258c-3.257,1.372-6.373,2.998-9.125,5.227    C1324.901,1762.445,1323.396,1763.459,1322.968,1765.643z M1588.255,1756.588c0.084-0.275,0.168-0.552,0.251-0.828    c0.446-0.102,0.89-0.274,1.339-0.293c0.958-0.038,1.922-0.046,2.878,0.019c7.581,0.514,14.863,2.155,21.605,5.798    c2.11,1.14,4.15,2.431,6.329,3.416c1.722,0.778,3.579,1.342,5.434,1.703c0.798,0.156,1.743-0.438,2.663-0.704    c-1.328-2.743-1.333-2.79-2.786-3.985c-2.865-2.355-6.088-4.103-9.495-5.541c-11.045-4.662-22.615-6.803-34.542-7.298    c-1.498-0.062-2.786,0.265-4.103,0.974c-5.205,2.806-10.459,5.519-15.687,8.283c-0.386,0.204-0.702,0.543-1.337,1.047    c0.854,0.87,1.547,1.691,2.354,2.38c7.433,6.343,15.194,12.257,23.444,17.495c9.07,5.759,18.503,10.839,28.841,13.964    c3.35,1.013,6.835,1.605,10.284,2.25c2.229,0.417,4.477,0.18,6.622-0.604c1.918-0.699,2.773-2.161,2.314-4.154    c-0.284-1.234-0.743-2.455-1.307-3.592c-1.434-2.896-3.447-5.383-5.773-7.609c-6.39-6.12-13.277-11.577-21.407-15.217    c-4.81-2.153-9.756-3.998-14.633-6.002C1590.43,1757.632,1589.351,1757.091,1588.255,1756.588z M1378.13,1234.456    c-0.112-0.145-0.225-0.289-0.337-0.433c-0.636,0.371-1.305,0.696-1.904,1.119c-7.47,5.273-14.184,11.403-20.523,17.978    c-10.613,11.008-18.209,23.788-22.959,38.309c-4.029,12.317-7.009,24.895-9.563,37.583c-0.149,0.742-0.138,1.516-0.196,2.217    c0.815,0.26,1.382,0.44,2.014,0.642c0.023,4.069-1.843,7.12-4.482,9.839c-1.556,1.604-3.173,3.166-4.57,4.901    c-1.474,1.831-2.111,4.047-1.201,6.306c1.223,3.035,3.229,5.516,6.2,7.049c2.711,1.4,5.529,0.911,7.222-1.609    c1.221-1.817,2.145-3.93,2.744-6.041c0.604-2.127,0.762-4.407,0.907-6.633c0.354-5.421,0.689-10.848,0.848-16.278    c0.233-8.038,1.604-15.876,3.731-23.604c7.15-25.977,20.68-48.312,38.835-68.002    C1375.945,1236.658,1377.051,1235.569,1378.13,1234.456z M1629.059,1331.213c0-0.734,0.08-1.219-0.012-1.67    c-2.431-12.07-5.191-24.063-8.935-35.802c-2.874-9.015-6.461-17.74-11.761-25.638c-8.745-13.034-19.823-23.798-32.514-32.951    c-0.335-0.242-0.853-1.055-1.428-0.067c0.303,0.371,0.57,0.765,0.901,1.096c10.7,10.732,19.192,23.101,26.72,36.17    c6.019,10.449,10.344,21.613,13.617,33.19c2.403,8.5,3.676,17.173,3.946,26.014c0.177,5.752,0.607,11.498,0.968,17.243    c0.204,3.246,1.076,6.311,2.909,9.03c2.065,3.062,5.196,3.73,8.343,1.794c2.089-1.286,3.575-3.154,4.864-5.212    c1.535-2.452,1.432-4.896-0.147-7.204c-0.984-1.44-2.243-2.695-3.411-4.005c-1.17-1.311-2.497-2.497-3.544-3.896    c-1.658-2.216-2.736-4.676-2.25-7.583C1627.865,1331.564,1628.309,1331.434,1629.059,1331.213z M1435.564,1362.359    c0.944-0.045,1.887-0.135,2.831-0.127c5.741,0.049,11.482,0.142,17.223,0.173c2.422,0.013,4.265,1.009,5.745,2.892    c1.479,1.881,2.985,3.749,4.604,5.508c1.724,1.874,3.461,3.778,5.435,5.369c2.718,2.191,6.072,2.191,8.849,0.091    c1.641-1.241,3.103-2.75,4.501-4.271c1.726-1.877,3.42-3.807,4.916-5.868c1.954-2.694,4.481-3.866,7.768-3.825    c5.741,0.07,11.482,0.03,17.223-0.005c0.643-0.004,1.605,0.52,1.864-0.688C1491,1350.089,1456.338,1351.416,1435.564,1362.359z     M1326.756,1284.024c-2.534-3.954-3.905-8.027-4.512-12.331c-0.857-6.077-0.05-11.86,4.092-16.67    c3.971-4.612,9.022-7.456,15.044-8.71c2.919-0.608,5.696,0.155,8.679,0.266c1.237-1.199,2.535-2.367,3.726-3.637    c1.272-1.356,2.924-2.413,3.833-4.342c-0.762-0.593-1.324-1.145-1.985-1.525c-4.264-2.449-8.862-3.704-13.771-3.192    c-11.262,1.173-19.777,6.958-25.667,16.397c-6.71,10.755-5.397,26.49,2.661,36.409c1,1.231,2.16,2.353,3.364,3.389    c0.51,0.439,1.325,0.525,2.146,0.825C1325.198,1288.511,1325.926,1286.415,1326.756,1284.024z M1627.481,1291.046    c2.224-0.545,3.493-2.036,4.675-3.491c6.877-8.469,9.404-18.243,6.85-28.739c-3.258-13.381-12.685-21.089-25.637-24.483    c-5.895-1.545-11.751-0.424-17.107,2.662c-0.79,0.456-1.762,0.823-1.833,2.337c1.043,1.067,2.219,2.34,3.473,3.533    c1.369,1.303,2.495,2.9,3.736,3.522c2.939-0.074,5.334-0.354,7.687-0.148c4.573,0.401,8.556,2.4,12.215,5.107    c6.535,4.836,8.958,11.408,8.08,19.308c-0.443,3.988-1.373,7.887-3.497,11.356c-0.936,1.528-0.984,2.916-0.275,4.512    C1626.484,1287.957,1626.925,1289.48,1627.481,1291.046z M1466.199,1194.573c6.379,0,12.758,0.001,19.137-0.008    c0.122,0,0.299-0.098,0.351-0.201c0.066-0.13,0.029-0.312,0.049-0.726C1479.171,1190.069,1472.64,1189.818,1466.199,1194.573z     M1627.731,1369.211c0.067,0.302,0.135,0.604,0.202,0.906c0.762,0.121,1.528,0.341,2.284,0.311    c0.292-0.011,0.728-0.56,0.796-0.921c0.074-0.382-0.211-0.833-0.398-1.452C1629.579,1368.47,1628.655,1368.84,1627.731,1369.211z     M1324.266,1369.035c-1.31-0.319-2.176-0.531-3.413-0.833c0.093,0.843-0.05,1.64,0.248,1.871    C1322.082,1370.833,1323.067,1370.604,1324.266,1369.035z"/>
		<path fill="#141414" d="M1475.863,1523.709c-3.332,3.318-7.135,3.559-11.042,3.449c-5.998-0.168-9.793-3.425-12.032-8.711    c-1.069-2.523-1.321-5.242-1.365-7.987c-0.034-2.198,0.21-4.432-0.303-6.881c-1.595,0.092-2.985,0.168-4.375,0.254    c-4.641,0.286-9.271,0.421-13.799-0.937c-0.917-0.275-1.833-0.56-2.732-0.888c-10.94-4-16.855-14.236-13.662-27.102    c1.094-4.411,3.391-8.261,6.112-11.855c6.451-8.524,14.912-14.364,24.746-18.298c1.952-0.78,3.653-1.601,5.13-3.262    c1.438-1.618,3.417-2.921,5.399-3.844c2.438-1.135,5.071-2.067,7.717-2.499c7.456-1.218,14.95-1.384,22.368,0.429    c4.735,1.157,9.07,2.995,12.281,6.952c0.731,0.901,2.065,1.411,3.216,1.858c7.229,2.811,13.797,6.685,19.499,11.961    c4.382,4.055,8.013,8.685,10.581,14.109c2.182,4.607,3.013,9.456,2.259,14.477c-0.981,6.536-4.335,11.612-10.036,15.027    c-3.902,2.338-8.165,3.733-12.706,3.896c-3.98,0.144-7.974-0.084-12.127-0.149c-0.967,0.882-0.446,2.237-0.561,3.456    c-0.283,3.014-0.223,6.098-0.858,9.032c-1.542,7.123-6.466,10.912-13.651,10.984    C1482.307,1527.219,1478.894,1526.682,1475.863,1523.709z M1475.892,1482.704c4.254,2.44,8.405,4.818,12.555,7.201    c4.597,2.64,9.387,4.809,14.638,5.767c5.263,0.96,10.499,0.996,15.588-0.926c7.716-2.914,11.148-9.76,8.988-17.714    c-0.853-3.138-2.408-5.906-4.28-8.514c-3.981-5.549-9.076-9.846-15.017-13.161c-2.202-1.229-4.383-2.536-6.872-3.116    c-6.96,7.69-15.579,11.296-25.647,11.311c-10.238,0.015-18.897-3.885-25.745-11.324c-8.723,3.475-15.594,8.426-20.617,14.814    c-2.284,2.906-4.303,5.992-5.269,9.601c-2.136,7.98,0.671,15.056,8.959,18.14c0.597,0.222,1.216,0.387,1.831,0.557    c5.889,1.62,11.715,1.091,17.481-0.598c4.007-1.174,7.719-3.03,11.321-5.125    C1467.802,1487.293,1471.829,1485.024,1475.892,1482.704z M1479.314,1493.877c-0.218,1.696-0.55,3.103-0.553,4.51    c-0.009,4.634,0.053,9.269,0.188,13.9c0.061,2.073,0.312,4.146,0.567,6.207c0.165,1.325,0.793,2.415,2.095,2.999    c5.107,2.293,11.372-0.381,12.749-5.794c1.179-4.637,1.296-9.432,0.88-13.874    C1489.842,1499.131,1484.867,1496.648,1479.314,1493.877z M1456.584,1501.79c0,3.304-0.061,6.492,0.03,9.677    c0.036,1.266,0.325,2.542,0.644,3.776c1.147,4.446,4.033,6.684,8.65,6.796c5.048,0.122,6.418-0.892,6.627-5.936    c0.278-6.705,0.184-13.426,0.219-20.141c0.004-0.743,0.115-1.642-0.75-1.871    C1466.889,1496.646,1461.907,1499.133,1456.584,1501.79z M1466.195,1448.447c2.6-0.119,4.314-0.308,5.575-1.799    c0.771-0.911,0.797-2.142-0.016-3.01c-2.12-2.266-6.724-2.437-9.175-0.34c-1.16,0.993-1.268,2.92,0.025,3.695    C1463.913,1447.776,1465.459,1448.161,1466.195,1448.447z"/>
		<path fill="#141414" d="M1607.698,1586.812c-2.046,11.218-9.415,18.513-18.352,24.594c-2.96,2.014-6.262,3.132-9.907,3.11    c-5.335-0.033-9.127-2.688-10.887-7.705c-0.315-0.9-0.582-1.818-0.951-2.982c-1.089,0.148-2.155,0.275-3.215,0.442    c-7.005,1.103-12.637-2.813-14.181-9.718c-0.903-4.037-0.35-7.981,0.621-11.854c2.113-8.434,6.462-15.64,12.938-21.414    c2.34-2.086,5.248-3.534,8.482-5.658c0.083-0.169,0.5-1.023,0.926-1.874c4.009-7.998,10.857-11.35,19.435-11.717    c1.38-0.059,2.853,0.329,4.153,0.84c0.723,0.284,1.179,1.249,1.641,1.776c-0.547,1.273-1.422,1.167-2.173,1.307    c-2.037,0.381-4.101,0.651-6.107,1.149c-2.827,0.702-5.348,2.074-7.582,3.954c-7.491,6.308-6.274,15.199,2.703,19.007    c2.176,0.923,4.585,1.306,6.9,1.881c0.761,0.188,1.564,0.198,2.523,0.311c0.418,1.027,0.721,2.104,1.269,3.036    c0.802,1.364,1.606,2.802,2.714,3.899c3.693,3.656,8.317,3.438,11.693-0.533c1.125-1.324,1.973-2.896,2.855-4.408    c0.633-1.082,1.112-2.254,1.692-3.453c2.079,2.415,2.447,4.81,1.246,7.738c-1,2.438-2.711,4.315-4.806,5.85    C1610.174,1585.235,1608.946,1585.984,1607.698,1586.812z M1584.946,1575.776c-2.549-1.436-5.118-2.468-7.155-4.146    c-2.153-1.773-3.801-4.162-5.741-6.363c-6.54,5.46-11.419,11.861-13.4,20.104c-0.588,2.441-0.718,5.067-0.592,7.586    c0.137,2.752,2.271,4.249,4.982,3.896c0.937-0.121,1.943-0.329,2.738-0.801c2.185-1.297,4.476-2.524,6.36-4.192    c4.814-4.261,8.695-9.359,12.273-14.68C1584.745,1576.686,1584.85,1576.038,1584.946,1575.776z M1573.691,1600.503    c2.932,6.275,5.333,7.215,10.78,3.941c5.812-3.492,10.623-8.106,14.107-13.987c0.45-0.761,0.626-1.684,1.03-2.815    c-4.072-1.108-6.721-3.829-9.219-6.765C1581.597,1593.431,1581.05,1593.51,1573.691,1600.503z"/>
		<path fill="#141414" d="M1353.161,1545.312c1.11-2.854,3.027-3.268,4.966-3.267c8.592,0.007,15.597,3.059,20.026,10.815    c0.316,0.554,0.544,1.157,0.825,1.731c0.278,0.569,0.571,1.131,0.81,1.601c12.182,5.777,21.292,19.117,22.004,32.208    c0.104,1.907,0.088,3.858-0.194,5.741c-1.026,6.855-6.956,11.173-13.841,10.193c-1.087-0.155-2.16-0.407-3.468-0.658    c-0.354,1.03-0.662,1.89-0.946,2.758c-1.727,5.286-5.589,8.08-11.124,8.077c-2.781-0.002-5.396-0.643-7.821-1.984    c-7.454-4.123-13.414-9.822-17.487-17.31c-1.356-2.492-2.051-5.344-3.267-8.619c-0.898-0.627-2.383-1.555-3.745-2.638    c-2.434-1.938-4.323-4.268-4.813-7.479c-0.322-2.107-0.145-4.079,1.54-6.073c0.916,1.806,1.557,3.405,2.487,4.813    c1.134,1.717,2.319,3.487,3.83,4.85c2.445,2.206,5.621,2.237,8.446,0.493c1.817-1.122,3.192-2.662,4.12-4.572    c0.552-1.136,0.977-2.334,1.466-3.523c2.378-0.486,4.734-0.876,7.039-1.466c2.667-0.682,5.087-1.91,7.063-3.888    c3.292-3.294,3.945-7.815,1.651-11.882c-1.968-3.488-4.968-5.886-8.66-7.233c-2.528-0.923-5.242-1.337-7.874-1.975    C1355.317,1545.813,1354.438,1545.612,1353.161,1545.312z M1379.434,1565.01c-3.191,5.202-6.919,9.159-13.407,10.396    c5.181,7.312,9.966,14.218,17.016,19.137c1.406,0.98,3.101,1.675,4.764,2.131c3.34,0.916,5.803-0.761,6.026-4.167    c0.133-2.034-0.049-4.152-0.476-6.15C1391.511,1577.731,1386.57,1571.054,1379.434,1565.01z M1352.224,1587.624    c0.144,0.839,0.169,1.158,0.257,1.458c0.089,0.303,0.212,0.604,0.371,0.876c3.605,6.188,8.629,10.968,14.716,14.649    c1.068,0.646,2.326,1.003,3.529,1.394c1.875,0.608,3.46,0.021,4.698-1.445c1.016-1.202,2.129-2.386,2.093-4.296    c-1.438-1.33-3.002-2.674-4.444-4.139c-1.561-1.585-3.057-3.24-4.488-4.942c-1.329-1.58-2.505-3.29-3.805-4.896    c-1.355-1.675-2.156-3.8-4.15-5.497C1358.889,1584.302,1356.002,1586.436,1352.224,1587.624z"/>
		<path fill="#141414" d="M1426.619,1232.421c1.012-0.127,1.793-0.329,2.568-0.305c9.114,0.284,18.226,0.636,27.341,0.879    c1.599,0.042,2.686,0.765,3.777,1.754c4.148,3.761,8.32,7.496,12.5,11.223c0.944,0.842,1.955,1.609,3.138,2.576    c5.96-5,11.457-10.338,17.462-15.429c10.366-0.332,20.862-1.18,31.284-0.91c1.379,4.313,7.9,46.678,7.952,51.293    c-3.575,1.188-25.158,2.849-31.716,2.385c-3.19-7.258-4.94-15.233-7.967-22.555c-1.417-0.514-1.958,0.48-2.612,1.051    c-3.375,2.944-6.701,5.946-10.054,8.918c-0.837,0.742-1.677,1.487-2.572,2.154c-1.144,0.853-2.392,0.932-3.56,0.071    c-1.027-0.757-1.992-1.604-2.95-2.449c-3.829-3.38-7.644-6.776-11.74-10.411c-0.54,0.879-1.047,1.449-1.275,2.115    c-1.916,5.596-3.775,11.211-5.664,16.816c-0.456,1.352-0.956,2.689-1.489,4.184c-0.801,0.135-1.576,0.417-2.33,0.369    c-8.939-0.565-17.875-1.176-26.811-1.791c-0.792-0.055-1.575-0.229-2.624-0.387c-0.085-0.913-0.354-1.841-0.225-2.709    c1.672-11.228,3.404-22.448,5.114-33.67c0.506-3.32,0.974-6.645,1.497-9.961    C1425.935,1235.914,1426.288,1234.21,1426.619,1232.421z M1430.986,1237.261c-0.245,0.662-0.486,1.082-0.555,1.529    c-1.923,12.467-3.841,24.936-5.717,37.41c-0.158,1.048-0.021,2.141-0.021,3.145c4.009,0.885,19.052,1.849,22.875,1.473    c0.453-1.231,0.975-2.554,1.427-3.9c2.135-6.355,4.236-12.723,6.387-19.074c0.385-1.137,0.944-2.214,1.56-3.636    c1.423,1.143,2.563,1.983,3.619,2.918c4.307,3.813,8.576,7.667,12.889,11.473c0.792,0.699,1.721,1.242,2.674,1.918    c2.224-1.966,4.258-3.758,6.285-5.558c2.031-1.804,4.016-3.662,6.091-5.413c2.022-1.707,3.767-3.796,6.452-5.234    c0.652,1.653,1.221,2.932,1.667,4.253c2.2,6.503,4.354,13.022,6.561,19.524c0.347,1.021,0.871,1.981,1.264,2.856    c4.967,0.243,19.616-0.859,22.854-1.744c-0.521-6.935-1.922-13.808-2.955-20.717c-1.057-7.061-1.829-14.183-3.472-21.437    c-1.971,0-3.706-0.054-5.438,0.01c-5.747,0.212-11.491,0.536-17.24,0.667c-2.043,0.046-3.621,0.668-5.128,2.054    c-4.822,4.433-9.733,8.769-14.653,13.093c-0.79,0.694-1.797,1.139-2.796,1.757c-1.179-0.947-2.195-1.697-3.136-2.531    c-4.664-4.132-9.333-8.258-13.943-12.45c-1.233-1.121-2.474-1.838-4.212-1.886c-6.707-0.185-13.41-0.501-20.116-0.725    C1433.126,1237,1432.038,1237.183,1430.986,1237.261z"/>
	</g>
</g>
</svg>